<?xml version="1.0" encoding="UTF-8"?>
<svg id="Layer_1" data-name="Layer 1" xmlns="http://www.w3.org/2000/svg" viewBox="0 0 1337.04 1334.83">
  <defs>
    <style>
      .cls-1 {
        fill: #fff;
      }
    </style>
  </defs>
  <path class="cls-1" d="M250.28,6.51c1.75.57,1.72,1.24,0,2-1.98.14-4.02-.16-6,0,1-2.74,3.87-1.74,6-2Z"/>
  <g>
    <path class="cls-1" d="M1334.28,652.51c-3.31-.57-6.28-1.88-8.89-3.97-31.53-42.92-64.91-83.84-99.14-124.51-19.14-22.74-41.66-45.13-63.92-64.06.5,4.17-.73,7.66-4.05,10.54l-4.19-1.91c-3.25-47.86-10.77-97.83-31.79-142.96l-.02-9.13,10.42-.53c65.49-22.12,130.02-47.28,193.58-75.47,3.19,17.37,7.14,34.98,8.08,52.92,6.08,115.6-.08,242.24-.08,359.08Z"/>
    <path class="cls-1" d="M1032.28,2.51c3.33.04,6.68-.13,10,0,1.71.98,3.05.98,4,0,6.38.29,11.19,1.54,16,2-4.83,11.39-14.6,18.31-24.37,25.21-20.49,14.48-48.14,30.45-70.35,42.65-55.8,30.64-112.18,60.34-171.1,84.31-20.28,12.09-38.52,18.13-62.18,17.84-28.88,5.73-59.15,5.9-88,0,2.71-6.16,9.73-8.1,21.04-5.83,51.33-14.45,104.96-41.11,153.47-66.45,56.08-29.29,113.42-60.64,162.27-99.97,16.22-2.07,33.18-1.91,49.21.25Z"/>
    <path class="cls-1" d="M1062.28,4.51c23.6,2.26,48.09,4.46,70,14-74.85,56.94-171.92,102.3-260.83,142.93-24.6,11.24-37.73,16.22-63.17,13.07-16.99,3.66-51.97,7.92-67.85,2.71-2.12-.7-4.15-1.66-6.15-2.71,4.93-4.03,12.37-1.2,18.56-2.44,10.96-2.2,32.83-15.17,44.04-19.96,74.78-31.89,146.36-67.37,214.72-111.28,16.48-10.59,31.18-16.02,44.03-32.01,1.72-2.14-.86-6,6.65-4.31Z"/>
    <path class="cls-1" d="M1334.28,718.51v100c-4.56-4.69-7.74-11.32-9.53-19.89-40.97-74.66-92.74-147.47-150.46-210.59-6.23-4.14-10.9-8.65-14.01-13.53-6.45-18.88-7.84-42.9-2-62,.09-9.05,2.84-11.54,8.26-7.45,59.49,53.09,105.97,119.81,151.13,185.23,8.09,8.46,13.62,17.87,16.61,28.22Z"/>
    <path class="cls-1" d="M1334.28,818.51c3.11,35.77-2.31,75.76,0,112l-4.09-3.03-1.79-38.56c-46.05-86.66-98.84-179.46-168.12-250.41-5.82-20.88-5.64-43.1,0-64,11.7,2.86,19.05,13.29,27.03,21.97,41.93,45.64,85.08,107.34,117.8,160.2,11.42,18.44,27.3,40.39,29.17,61.83Z"/>
    <path class="cls-1" d="M580.28,1332.51c-8.57,1.61-17.43,1.67-26,0l-6.8-5.72c-66.76-151.66-279.59-167.04-369.56-28.82l-7.64,4.54c-7.87-3.49-12.51-5.81-20-10,.62-16.87,17.85-35.12,29.79-47.76,107.7-114.02,288.18-96.96,375.94,31.65,10.68,15.65,25.56,37.79,24.27,56.11Z"/>
    <path class="cls-1" d="M1132.28,18.51c18.75,3.22,31.83,11.58,48,20l-3.98,6.49c-72.52,46.45-151,85.52-230.91,117.58-11.92,5.39-24.81,11.56-35.11,17.93-1.71.83-3.43,1.58-5.23,2.08s-3.44.88-5.12.79c-27.19-1.3-54.75-2.83-81.91-4.6-1.65-.11-3.27-.75-4.92-1.47s-3.27-1.74-4.82-2.8c8.46-1.17,20.81,1.7,28.58-.07,1.44-.33,1.52-3.13,3-3.75,53.16-22.25,111.31-50.31,162.2-77.4,28.88-15.37,97.53-50.93,119.37-70.69,1.87-1.69,2.66-5.65,3.05-5.93.33-.23,5.61,1.46,7.79,1.83Z"/>
    <path class="cls-1" d="M452.28,1156.51c4.71,7.33-6.03,5.7-11.36,4.41,75.49,26.19,140.25,90.8,164.61,166.91l-3.24,4.68c-7.32,1.49-14.7,1.52-22,0-40.33-112.25-162.35-182.97-280.41-153.41-61.29,15.34-119.69,57.43-149.59,113.41-7.4-4.14-12.88-7.24-20-12,46.97-89.37,151.61-141.46,252.4-131.59l1.6-2.41c17.38-2.98,40.69,1.08,58.71,4.97,3.5.76,6.5,2.88,9.29,5.03Z"/>
    <path class="cls-1" d="M1160.28,740.51c1.78-7,3.14-6.9,8.76-3.06,7.75,5.29,40.57,57.68,45.82,66.33,47.12,77.55,86.12,160.36,117.41,244.73-1.78,24.37-3.93,44.21-10,68l-2,4c-.17.62.18,1.39,0,2-5.49-.25-9.21-4.32-11.15-12.19-29.21-109.59-81.75-216.36-145.49-311.07l-3.36-14.74c-5.85-13.4-6.18-30.82,0-44Z"/>
    <path class="cls-1" d="M1032.28,2.51c-10.14-.13-36.86-1.95-44.6-.04-1.77.44-2.75,4.96-5.46,6.94-70.03,51.16-160.1,99.32-239.46,134.58-18.59,8.26-53.31,25.65-71.58,28.42-7.96,1.21-17.81-2.34-24.9,2.1-19.29,6.01-40.67,5.79-60,0,.17-5.87,5.68-7.88,16.53-6.03,109.03-37.05,215.04-93.29,308.34-161.84l-24.38-1.92-2.5-4.21c45.63,0,91.39-.6,137.03-.03,3.38.04,8.89-1.28,10.97,2.03Z"/>
    <path class="cls-1" d="M1160.28,784.51c5.62,6.53,6.58,14.9,11.95,22.49,54.78,77.49,98.02,168.95,128.62,259.94,6.1,18.15,7.84,39.8,19.43,55.57-4.02,13.86-8.24,24.84-14,38-5.11,9.26-9.04,9.48-11.77.66-32.19-109.35-71.49-219.98-136.23-312.66-5.2-20.22-4.6-44.18,2-64Z"/>
    <path class="cls-1" d="M1278.28,1208.51c-9.26,13.2-12.94,18.14-24,30-4.78,4.22-8.58,7.42-11.38,0-11.79-79.48-41.88-156.28-71.86-230.67-2.69-6.66-20.34-44.13-23.8-46.97-.65-.53-1.74-.52-2.96-.35-3.22-12.39,1.24-32,4.98-45.15.79-2.78,2.99-4.9,5.02-6.85,2.2-15.23,9.74-9.39,15.49.36,48.34,81.93,84.78,191.21,108.46,283.76.63,2.47.67,5.1.68,7.77s-.27,5.41-.62,8.11Z"/>
    <path class="cls-1" d="M1160.28,694.51c.44-10.95,5.27-12.99,12.55-4.62,66.21,76.14,112.98,172.33,155.49,263.34,3.42,7.32,5.24,15.62,5.96,23.28,2.41,23.16-.34,49.28-2,72-4.27-2.45-6.55-8.28-8.38-12.62-41.28-97.57-74.27-178.39-136.45-265.55-6.78-9.5-12.51-20.9-20.57-29.35-3.16-3.31-2.05-3.28-6.6-.48-5.65-14.83-5.82-31.21,0-46Z"/>
    <path class="cls-1" d="M1306.28,1160.51c-8.94,20.41-15.68,30.45-28,48-16.91-64.4-34.85-128.62-61.06-189.94-14.05-32.85-32.57-73.39-49.26-104.74-3.44-6.46-10.56-17.99-13.68-5.32-4.27-17.67-3.17-43.44,4-60,5.02-4.23,8.71,5.05,10.83,8.17,35.3,52.12,70.59,130,92.71,189.29,14.67,39.32,24.38,80.38,38.46,119.56l6.01-5.03Z"/>
    <path class="cls-1" d="M1160.28,638.51c4-2.94,4.82-1.95,8,1.04,13.23,12.42,27.42,32.38,38.79,47.17,38.97,50.71,76.69,108.99,106.25,165.75,2.96,5.69,18.48,33.45,18.92,35.44,1.47,6.65,1.74,33.89,2.04,42.61.52,15.28-.38,30.71,0,46-.9-8.66-5.06-10.97-6.57-14.51-39.54-93.34-91.82-187.41-155.43-266.49-4.9-6.09-9.17-11.35-12-1-4.88-18.72-4.9-37.29,0-56Z"/>
    <path class="cls-1" d="M474.28,2.51c15.37-1.17,31.13-1.77,46.57-.99,10.88.55-12.55,23.45-15.68,26.39-46.56,43.76-117,79.75-175.81,104.82-7.73,3.29-45.11,18.44-49.84,18.7-1.06.06-2.15-.36-3.24-.93l-8.98,6.32c-79.81,31.06-161.25,57.24-244.33,78.56-5.7,4.9-12.91,6.86-12.69-2.88,1.1-5.33,2.58-10.74,4-16,116.66-32.76,237.2-70.42,345.35-129.13,39.88-21.65,81.43-47.34,109.07-82.85l5.58-2.02Z"/>
    <path class="cls-1" d="M1240.28,80.51c-81.61,43.55-164.11,83.05-247.48,118.5l-4.52-.5c-.67,1.73-1.33,1.73-2,0l-4-2c-.66,1.73-1.33,1.73-2,0l-4-2-4.08,2.93-31.82-8.42-2.11-4.5c3.91-4.41,8.38-8.15,13.42-11.2,79.69-34.34,155.72-74.76,232-116.33,5.79-3.16,12.21-4.9,18.59-6.47,13.28,8.58,27.41,18.16,38,30Z"/>
    <path class="cls-1" d="M1240.28,80.51c11.24,7.48,21.7,21.46,30,32-.61,4.15-5.45,3.7-6.59,1.11-71.07,36.32-143.18,69.08-216.25,101.25-2.6,1.15-5.43,1.79-8.3,2.4s-5.87.96-8.85,1.23c-.56,1.72-1.22,1.69-2,0l-10-6c-8.69,3.18-26.05-5.73-30-14,1.5-2.58,3.18-3.84,5.82-5.17,21.77-10.91,48.75-20.11,71.53-30.48,55.23-25.15,109.89-51.96,163.32-80.67,2.47-1.33,3.96-3.91,6.33-5.34,1.72,1.15,3.27,2.5,5,3.65Z"/>
    <path class="cls-1" d="M1158.28,470.51c.11-5.31-.09-10.68.01-15.99,2.93-.63,4.41,1.03,6.63,2.35,10.4,6.14,43.17,41.61,53.42,52.58,17.89,19.16,37.42,42.22,53.87,62.6,21.19,26.24,39.2,55.6,62.07,80.46v66c-7.24-9.67-16.12-20.29-22.86-30.14-40.67-59.38-90.01-128.62-143.37-176.63-6-5.4-7.21-7.56-9.76.76-6.07-13.43-6.08-28.58,0-42Z"/>
    <path class="cls-1" d="M1254.28,1238.51c-11.36,12.18-18.97,19.62-32,30l-5.27-.27c-18.98-90.51-43.15-191.76-86.73-267.73-2-11.26,4.06-33.9,14-40,.87-1.91,1.78-4.61,2.99-5.99,4.49,1.95,30.12,57.08,33.97,66.03,25.67,59.53,45.69,124.38,60.45,187.55,2.04,8.73,2.61,21.54,4.95,29.05,1.38,4.44,4.62,3.73,7.63,1.37Z"/>
    <path class="cls-1" d="M370.28,2.51l1.64,6.13c-9.32,33.84-92.32,81-121.17,95.67-65.77,33.45-145.45,63.17-216.71,82.66-2.99.82-9.35-2.45-7.76-6.46,2.54-6.22,4.86-12.04,8-18l7.66-4.83c62.33-17.16,127.28-43.45,183.14-77,28.41-17.06,70.26-43.32,75.25-77.78,15.32-1.44,30.63-2.24,45.95-2.4.67-.02,1.33.02,2,0,7.58.53,14.91,1.2,22,2Z"/>
    <path class="cls-1" d="M420.28,2.51l1.84,5.51c-14.18,45.77-155.69,112.06-197.77,129.5-58.12,24.1-136.53,55.01-197.68,66.17-1.99.36-4.16-.26-6.38-1.18h-2c1.75-8.18,4.93-14.5,8-22l7.43,2.65c91-29.38,185.54-59.73,266.4-111.82,26.26-16.92,58.05-39.2,70.17-68.83,16.6-1.95,33.39-1.8,50,0Z"/>
    <path class="cls-1" d="M1222.28,1268.51c-11.71,9.34-17.59,12.66-30,20l-4.04-7.32c-12.31-64.23-30.91-126.48-51.46-187.98-6.03-18.05-14.47-41.62-26.5-54.7-1.68-11.83,10.26-31.12,20-38,4.16-3.47,4.38-.6,6.41,2.59,11.62,18.25,25.54,55.15,33.62,76.38,23.28,61.13,35.74,116.04,47.97,180.04.71,3.73,1.22,6.18,4,8.99Z"/>
    <path class="cls-1" d="M780.28.51l36.07,2.12c11.08,8.02-15.25,25.54-22.31,30.17-87.97,57.71-178.29,101.36-275.17,138.4-12.17,2.51-24.37,4.28-36.58,5.31-2.57,5.94-11.26,5.64-14,0-18.42,1.51-12.9-5.9-.49-12.44,72.22-29.51,142.98-62.19,209.51-101.76,27.76-16.51,55.8-33.61,79.24-55.88-9.42,1.5-13.51-.47-12.26-5.92,11.98,0,24.02,0,36,0Z"/>
    <path class="cls-1" d="M1192.28,1288.51c-9.78,5.78-15.02,9.05-26,14-5.28,2.16-8.33,1.55-9.14-1.83-13.37-77.94-30.41-164.62-68.86-234.17,0-9.49,12.21-27.16,22-28,1.09-1.13,2.01-2.31,2.05-3.98,3.64-1.88,12.87,19.46,14.29,22.65,7.36,16.59,15.16,37.57,21.2,54.8,20.14,57.42,33.73,116.62,44.47,176.53Z"/>
    <path class="cls-1" d="M524.28,1332.51c-6.61,1.14-25.76,2.84-30.5-.84-59.75-100.7-199.96-104.32-269.68-12.82l-9.82-.34c-7.92-2.03-17.83-1.89-24-8,1.17-2.08,3.34-3.29,6.5-3.63,69.53-108.28,233.64-112.18,310.69-10,5.15,6.84,17.95,24.01,17.63,31.16-.07,1.5-.4,2.98-.82,4.47Z"/>
    <path class="cls-1" d="M1270.28,112.51c6.94,8.82,10.25,14.88,16,24,.53,1.5,1.05,3.89.08,4.4-59.35,31.27-127.51,60.51-190.59,86.94-10.84,4.54-21.72,9.05-32.85,12.69l-8.64-4.03c-6.23,2.88-24.64-11.34-24-18,77.17-36.67,157.58-67.34,232.69-108.54l7.31,2.54Z"/>
    <path class="cls-1" d="M1166.28,1302.51c-12.94,5.84-22.14,9.86-36,14-2.61-4.63-5.16-9.42-6.22-14.67-8.36-41.18-17.3-80.45-26.93-121.23-2.89-12.25-25.26-79.44-30.92-85.48l-3.93-2.61-1.28-5.12c1.16-3.53,21.92-23.55,27.28-20.88,7.24-4.17,14.05,17.16,16.37,22.63,23.06,54.59,40.05,118.76,51.1,176.9,1.77,9.32,1.49,20.92,4.17,29.83,1.16,3.87,1.05,6.89,6.37,6.64Z"/>
    <path class="cls-1" d="M1304.28,168.51l.25,4.22c-72.78,30.28-145.63,60.4-218.56,90.35l-3.7-2.57-4.55,1.09-23.91-20.37.46-4.73c3.65,1.75,5.21.96,8.62-.19,41.7-14.04,83.46-38.38,125.39-52.8l97.99-47.01c7.47,11.84,11.9,18.72,18,32Z"/>
    <path class="cls-1" d="M648.28.51c12.47,1.19,24.99,1.53,37.56,1.02,6.99,1.59,4.69,6.26.39,10.11-67.78,57.23-153.09,101.22-237.34,135.18-2.18.88-4.59,1.19-7.06,1.48s-5.02.29-7.55.22c-.64,1.7-1.31,1.69-2,0l-86.76,25.14-3.24-3.14-.13-4.63c13.24-8.96,26.83-16.44,42.13-21.37l5.53-5.73c85.27-28.59,171.86-72.43,237.46-132.58-10.1.82-17.1-1.07-20.98-5.69,13.97-.02,28.03.02,42,0Z"/>
    <path class="cls-1" d="M606.28.51l28,2.02c3.17,2.35-28.4,27.99-30.99,29.99-56.02,43.26-151.08,93.47-219.01,111.99-15.12,7.93-34.94,10.36-51.9,9.56l-4.1-3.56c-2.73-4.09.41-7.37,3.92-4.45l8.08-3.55c.71-5.47,1.85-4.92,4,0l6-2,2.69-4.92c77.06-29.65,157.38-71.61,217.18-128.53l-31.34-2.35-2.53-4.19c23.3-.06,46.7.04,70,0Z"/>
    <path class="cls-1" d="M536.28.51l41.99,2.99c-3.87,4.57-8.81,11-13,15-39.96,38.08-161.57,107.62-214.99,122.01l-6,2c-1.24.23-2.78-.24-4,0-8.66,6.29-13.61,5.81-14.86-1.46l-24.04,7.76c-7.32,4.53-26.7,16.11-25.1,1.71,68.2-26.59,197.22-84.86,241.01-141.99,1.54-2.01,3.88-2.54,2.98-6-15.3-.09-30.69.09-45.99-.01-4.58,3.9-9.43,3.92-14,0-1.75-.57-1.72-1.24,0-2,25.3-.14,50.7.07,76,0Z"/>
    <path class="cls-1" d="M1130.28,1316.51c-11.78,3.52-21.95,5.72-34,8l-3.02-3.1c-6.98-71.63-31.4-145.11-54.98-210.9-1.87-5.99,12.74-17.97,18-14l4-4c.6-1.77,1.27-1.75,2,0,1.74-.46,3.36-2.93,6-1.15,5.18,3.49,29.57,77.52,33,89.16,13.12,44.47,22.52,90.1,29.01,135.99Z"/>
    <path class="cls-1" d="M208.28,1008.51c1.4,4.38,1.97,8.56,1.69,12.54-68.82,29.38-131.17,77.54-174.11,136.66-3.68,3.82-6.87,2.09-9.58-5.2-.23-.57.23-1.43,0-2l-2-4c-4.17-10.93-6.99-18.49-10-30l4-.3c45.25-57.37,109.35-104.7,180-131.7,6.44.09,14.47,19.36,10,24Z"/>
    <path class="cls-1" d="M1044.28,1330.51c-13.07.85-26.27,1.71-40,2-.97-.62-1.76-1.27-1.88-2.02-10.17-61.56-23-126.59-50.12-183.98,4.35-7.46,24.58-15.29,32-10,7.38-4.39,12.14-3.39,14.27,3.01,21.46,56.23,39.46,116.22,47.49,175.99.32,2.4.1,4.89-.19,7.4s-.89,5.08-1.56,7.6Z"/>
    <path class="cls-1" d="M884.28.51l37.99,2.99c-51.29,40.74-109.59,74.25-167.94,104.06-46.65,23.83-100.22,50.25-149.46,64.54-5.95,1.73-13.7-1.99-18.59,2.41-7.88,5.78-17.97,5.67-26,0-1.75-4.44.78-7.72,7.61-9.85,106.15-39.83,213.53-90.57,302.1-158.19-9.36,1.41-16.6.09-21.7-3.96-.52.88-1.2.81-2,0-1.75-.57-1.72-1.24,0-2h38Z"/>
    <path class="cls-1" d="M214.28,1318.51c4.82.72,5.98-1.2,8.88-4.13,6.68-6.75,12.51-15.18,20.07-21.93,80.39-71.82,202.59-52.7,255.37,39.73,8.51.78,17.15.19,25.68.32,5.58-4.97,10.5-4.98,16,0,4.58-3.91,9.43-3.93,14,0,8.65.06,17.35-.01,26,0,7.32,0,14.68-.03,22,0,1.78-7,23.97-6.53,24,2-46.63,0-93.38.35-140,0-5.44-.83-10.77-1.5-16-2l-5.32-1.72c-50.51-72.14-156.34-70.98-214.77-7.87l-7.91,1.59c-11.26-1.59-17.48-3.3-28-6Z"/>
    <path class="cls-1" d="M452.28,1156.51c11.53-6.7,34.61-4.65,46,2,65.12,34.38,113.78,99.88,137.38,170.02,9.06-1.32,15.27,0,18.62,3.98,6.65-5.65,15.5-5.72,22,0,9.18-5.42,18.85-5.49,28,0,12.11-4.94,23.9-5.01,36,0,8.5-5.46,17.53-5.54,26,0,7.83-5.44,16.21-5.52,24,0,7.83-5.44,16.21-5.52,24,0,6.23-4.99,11.85-5.01,18,0,1.55-6.11,12.05-4.22,12,2h-218c-5.96-3.69-16.44-1.97-24-2-2.04-14.76-10.49-30.36-17.66-43.34-28.64-51.84-70.4-90.57-123.62-116.38-4.36-2.11-25.8-9.25-26.58-10.45-6.33-9.87,11.46-4.08,14.94-4.12,1.64-.02,2.65-1.71,2.92-1.72Z"/>
    <path class="cls-1" d="M352.28,1136.51l4,2c.67-1.73,1.33-1.73,2,0l4,2c.54-1.72,1.21-1.69,2,0l4,2c.54-1.73,1.21-1.69,2,0,3.76,1.85,7.76,3.18,12,4,.49-1.75,1.16-1.7,2,0l3.99,5.99c-88.31-7.96-176.36,25.65-231.94,95.07-6.92,8.64-12.27,18.35-18.81,27.19-2.06,2.78-2.72,6.01-7.25,5.75-7.75-5.18-14.76-10.11-22-16,2.88-1.9,5.72-4.38,8.51-7.46,44.37-73.18,122.52-119.52,205.49-132.54,6.94-3.35,27.66,4.52,30,12Z"/>
    <path class="cls-1" d="M384.28,144.51l-42,26-14,7.45c-106.68,35.27-213.36,67.45-320.03,96.55l-3.97-2c.53-5.47,1.23-10.59,2-16,3.52-9.52,13.73-15.04,30.64-16.56,98.93-21.53,195.91-57.26,287.45-92.81l3.92,3.37c20.84-2.6,33.22.21,56-6Z"/>
    <path class="cls-1" d="M688.28.51c16.27,1.14,32.66,1.47,49.18,1.01,2.98.97,3.25,2.54,2.41,5.28-1.73,5.64-48.62,37.73-58.16,44.04-65.07,43.02-135.18,79.28-210.23,100.59l-9.19-.91-23.22,5.6c-4.6-.98-7.26-2.93-4.78-7.6,71.84-29.34,145.06-63.53,208.63-108.37,6.72-4.74,41.45-30.06,43.35-34.66,1.69-4.1-2.76-2.81-4.95-2.97-10.6-.77-23.3,2.26-33.03-2,13.31-.02,26.69,0,40,0Z"/>
    <path class="cls-1" d="M184.28,934.51c6.3.85,11.3,22.47,6,26l1.03,7.07c-67.98,27.73-126.58,71.65-176.17,125.63-3.04,1.98-5.32.41-6.86-4.7-1.82-11.28-3.36-20.41-4-32l4.69-10.45c46.42-45.1,102.27-89.34,163.77-111.48,1.69-.61,3.58-.68,5.53-.7s4.01.27,6.01.63Z"/>
    <path class="cls-1" d="M288.28,1104.51c4.09,4.21,5.79,6.01.2,9.54-51.25,17.13-100.54,36.64-137.35,78.23l-50.37,58.59c-2.02,2.52-4.84,2.4-8.48-.36-7.37-7-9.85-10.15-16-18,40.11-70.58,110.81-125.33,190-146,4.39-3.08,17.88,8.55,21.72,12.8l.28,5.2Z"/>
    <path class="cls-1" d="M1038.28,1110.51c5.29-1.18,3.81,2.77,5.07,5.83,24.73,59.72,43.77,129.19,52.78,193.31.66,4.68,2.55,10.61.14,14.87-10.31,1.95-17.72,2.78-28,4-2.36-3.96-4.71-8.09-5.55-12.68-12.16-66.24-24.69-130.21-50.45-191.32-.35-6.59,20.68-17.83,26-14Z"/>
    <path class="cls-1" d="M744.28.51c1.33,5.01,22.6-1.47,19.98,4.97-42.04,39.01-93.47,64.64-142.66,93.35-48.88,24.07-98.82,46.93-148.75,67.25-4.37,1.78-10.96,6.12-14.56,9.44l9.99.99c-12.1,5.14-25.64,7.74-40.62,7.78-13.17,3.46-25.63,4.19-37.38,2.22l-.78-4.8c21.29-15.51,46.54-26.74,72.78-31.2,28.77-10.82,58.29-17.6,86.43-30.57,60.01-27.67,134.98-69.99,185.03-112.84,1.44-1.23,3.78.07,2.53-4.58-3.09-2.49-41.19,3.35-47.99-2.01h56Z"/>
    <path class="cls-1" d="M540.28,1332.51c-5.32-.04-10.68.09-16,0-60.97-130.71-249.78-143.36-326.26-20.16-1.1.76-5.68-1.46-7.74-1.84-6.11-1.15-7.07-2.12-12-4,26.13-40.29,62.91-71.54,110.25-88.55,84.05-30.19,178.14,1.27,231.47,72.15,5.67,7.53,22.1,30.62,21.32,38.21-.15,1.42-.56,2.81-1.04,4.19Z"/>
    <path class="cls-1" d="M432.28,148.51l-3.31,6.23c-84.77,39-181,65.81-269.93,89.09l-10.76,4.68c-2.51,1.76-5.06,3.45-7.74,4.89s-5.3,2.82-8.09,3.62c-39.15,11.21-78.51,22.34-118.22,31.37-2.43.55-4.95.67-7.51.67,2.6,4.25,1.11,7.76-2.44,11.45-.57,1.75-1.24,1.72-2,0,.55-9.44,1.09-18.6,2-28,2.56-2.18,5.4-3.43,8.64-4.34,111.36-31.01,220.63-61.36,329.36-97.66,17.91-5.98,74.04-23.36,90-22Z"/>
    <path class="cls-1" d="M322.28,1124.51c3.11,4.69,2.59,3.47-2.03,4.93-11.55,3.65-25.51,4.58-37.96,8.07-52.64,14.78-102.21,46.93-138.06,87.94-9.42,10.78-19.35,29.73-27.97,38.17-3.22,3.15-4.17,2.14-7.98.88-5.44-4.43-10.92-9.18-16-14,3.82-.1,5.72-2.36,7.98-5.01,39.33-46.24,59.89-77.49,116.23-107.77,22.74-12.22,45.72-16.48,67.86-26.22,4.49-1.97,4.63-1.38,3.93-7l3.99-2.1,29.92,17.57.09,4.53Z"/>
    <path class="cls-1" d="M952.28,1146.51c5.27-.34,5,3.05,6.63,6.37,22.15,45.21,34.93,104.93,43.58,154.42,1.4,8.01,7.71,15.79,1.79,25.21-9.97.21-20.03-.08-30,0l-4.28-1.05-18.06-92.44c-10.88-29.82-20.76-58.66-29.66-86.51,5.09-6.97,22.66-10.59,30-6Z"/>
    <path class="cls-1" d="M1304.28,168.51c3.8,8.28,6.95,15.32,10,24l.23,4.23c-70.81,28.85-141.63,57.7-212.47,86.56l-3.76-2.79c-6.79.86-18.3-13.81-16-20l222-92Z"/>
    <path class="cls-1" d="M1180.28,38.51c8.18,4.26,13.76,6.67,22,12-35.66,21.67-72.67,42.19-109.95,61.05-50.72,25.66-103.68,47.2-154.05,72.95-5.48,5.17-24.27,2.6-28-4-3.72-4.71-.29-4.23,2.92-6.08,35.34-20.45,84.65-36.73,122.48-55.51,31.11-15.44,63.86-32.79,94.02-49.98,17.03-9.71,32.81-21.94,50.58-30.42Z"/>
    <path class="cls-1" d="M554.28,1332.51c-4.66-.03-9.34.03-14,0-39.09-89.09-141.05-141.51-236.44-115.44-30.41,8.31-76.53,34.97-97.52,58.48-6.46,7.23-12.76,20.02-19.14,26.86-2.84,3.05-4.26,4.72-8.9,4.1-3.82-1.46-5.51-2.9-8-4,92.73-150.94,317.07-134.09,384,30Z"/>
    <path class="cls-1" d="M1314.28,192.51c2.46,6.99,4.03,12.94,6,20,1.04,3.76,1.16,7.49.36,11.19-66.95,30.3-134.83,56.93-203.62,79.88l-4.75-5.07c-5.54,2.26-17.93-13.2-14-18l216-88Z"/>
    <path class="cls-1" d="M236.28,1054.51c2.64,3.65,2.73,6.85.27,9.63-72.47,28.08-133.21,77.19-177.26,139.94-2.25,2.66-4.59,2.14-7.01-1.57-4.53-6.83-8.09-12.78-12-20,.19-1.92.46-3.83.99-5.65s1.06-3.5,2.08-4.82c47.08-60.5,102.35-105.47,172.54-135.37l8.38-.16c6.19-1.51,15.69,12.88,12,18Z"/>
    <path class="cls-1" d="M276.28,150.51c5.28,8.36,18.24-3.49,23.59-5.41,4.76-1.71,23.93-8.23,27.48-8.55,5.99-.54,1.48,6.38,2.94,7.96,3.31-.74,6.65-1.35,9.99-2-1.96,5.31-8.45,4.39-12,8-17.53,2.19-68.82,27.17-90.43,34.57-42.24,14.48-86.3,28.07-129.15,40.83-31.15,9.27-66.05,15.19-96.5,25.55-3.01,1.03-4.32,2.45-5.92,5.05,1.13-7.94,2.39-16.15,4-24,6.27,6.74,6.88.35,11.95-1.06,85.44-23.69,171.47-48.75,254.05-80.94Z"/>
    <path class="cls-1" d="M224.28,1036.51c-20.29,11.98-42.37,20.18-62.62,32.38-47.99,28.94-87.56,69.45-121.38,113.62-5.28-9.76-9.77-19.72-14-30,1.81,1.96,1.93,6.23,6.02,3.02,5-3.92,17.75-23.38,23.93-30.08,42.37-45.92,92.98-83.26,151.18-106.87l.87-10.08,4.61.34,13.47,23.5-2.08,4.17Z"/>
    <path class="cls-1" d="M198.28,984.51c1,4.61-2.26,4.32-5.22,5.68-50.25,23.18-92.49,47.48-132.84,85.27-12.99,12.16-24.04,29.39-36.19,39.81-3.55,3.04-7.37,7.92-9.76,1.24-2.63-10.05-4.34-17.68-6-28,4.52,2.77,3.44,2.87,6.6-.48,53.86-56.99,97.96-89.91,169.93-122.09,2.98-1.33,6.54-.28,5.47-5.43,6.66,1.39,12.53,18.88,8,24Z"/>
    <path class="cls-1" d="M460.28,2.51c4.66.02,9.34-.03,14,0-11.53,20.43-34.3,37.87-53.37,51.63C323.81,124.18,140.82,187.88,23.8,217.17c-3.62.91-6.13,2.04-9.52-.66.57-2.11,1.36-3.97,2-6l2-2,10.54-5.36c92.83-25.95,187.11-57.57,272.49-99.1,50.94-24.78,106.35-54.01,140.53-99.49l4.44-2.06c4.66-1.46,9.38-1.47,14,0Z"/>
    <path class="cls-1" d="M922.28,1152.51c5.41-1.17,3.83,2.75,4.96,5.94,9.41,26.58,20.34,52.53,28.55,79.55l18.48,94.52c-5.32.04-10.68.02-16,0-4.59,1.66-9.34,1.52-14,0l-5.77-11.43c-11.23-55.89-26.99-110.56-47.28-164.01l11.05-2.56c1.43-6.16,17.33-7.63,20-2Z"/>
    <path class="cls-1" d="M2.28,642.51c5.08,3.59,5.06,6.4,0,10,5.01,12.76,4.97,25.23,0,38,3.94,10.61,3.93,21.38,0,32,3.93,9.27,3.93,18.72,0,28,3.93,11.94,3.93,24.06,0,36,3.93,14.62,3.92,29.38,0,44,3.94,12.61,3.92,25.39,0,38,4.97,16.08,4.92,31.92,0,48,5.51,12.51,5.42,25.46,0,38l3.98,5.37c-.72,9.51-.51,18.87.64,28.09,44.98-44.25,102.16-76.02,160.95-101.04,1.47-.63,3.17-.73,4.94-.8s3.66.12,5.49.39c6.15,1.37,7.69,17.33,2,20l.09,7.99c-63.87,27.75-120.93,64.96-171.19,111.62l-6.89.39C1.23,895.45-.43,763.85.28,632.51c7.34-2.98,8.86,7.71,2,10Z"/>
    <path class="cls-1" d="M346.28.51c-.26,0-2.18,1.97-4.83,2.09-5.78.26-35.89-1.44-37.17-.09-.39.42.34,6.06-.46,8.49-20.1,60.89-167.66,120.24-225.58,140.47-13.6,4.75-29.81,10.39-43.96,11.04.4-.76,1.62-1.33,2-2l2-2c-.85-.6-.81-1.27,0-2l2-2c-.94-.67-.94-1.34,0-2,.26-.55-.27-1.48,0-2l8.52-6.89c55.03-18.11,108.54-41,157.33-71.75,25.44-16.04,51.3-37.21,58.15-67.36,27.29-3.13,54.44-5.14,82-4Z"/>
    <path class="cls-1" d="M1326.28,240.51c1.11,4.99-2.64,4.06-5.29,5.61-32.43,18.93-99.04,41.39-136.75,55.35-12.14,4.49-41.07,16.71-51.5,18.57-4.98.89-7.99,1.82-10.46-3.53-6.33.34-13.64-12.9-10-18,3.21,2.58,5.69,1.16,9,.14,46.92-14.49,102.45-38.6,148.38-57.76,15.99-6.67,31.81-13.5,47.86-20.09,5.03-2.06,2.39-4.05,2.76-8.29,2.96,10.64,4.03,17.29,6,28Z"/>
    <path class="cls-1" d="M1012.28,1124.51c5.49-.66,7.84,11.25,9.5,15.5,23.36,59.56,39.46,124.85,46.5,188.5-8.64,1.02-15.23,1.43-24,2-9.74-67.12-26.23-133.34-52.06-196.01-2.54,1.57-5.19,1.49-7.94,2.01.32-8.44,21.2-15.64,28-12Z"/>
    <path class="cls-1" d="M270.28,1328.51l-2.08-4.54c44.89-50.03,136.2-46,179.28,5.15,9.38-1.7,16.98-.57,22.8,3.39,5.01.04,12.68-1.56,16,2-71.83-.54-145.1.59-216-6Z"/>
    <path class="cls-1" d="M832.28,1158.51c27.37,54.09,45.49,111.28,54.34,171.57,7.27-2.78,15.55-2.74,21.66,2.43,4.25-5,7.76-5.02,12,0,8.16-4.95,15.86-5,24,0,4.66.02,9.34-.02,14,0-2.08,3.32-7.59,1.99-10.97,2.03-30.27.37-60.78.41-91.03-.03l-3.92-4.51c-5.76-59.2-31.42-115.71-56.09-168.1,9.55-2.99,20.22-4.12,32-3.39,1.12-3.85,2.87-3.83,4,0Z"/>
    <path class="cls-1" d="M246.28,268.51l1.54,4.32-16.97,22.06-4.58-.38-8.11,6.12L7.07,352.7c.01,7.63-1.59,12.9-4.79,15.8,3.82,1.13,3.82,2.87,0,4-.57,1.75-1.24,1.72-2,0,.26-14.15,1.5-28,2-42,2.65-3.03,5.8-5.38,9.47-7.02,59.17-13.26,117.46-29.36,174.88-48.3l56.06-10.1,3.59,3.42Z"/>
    <path class="cls-1" d="M184.28,934.51c-69.33,24.96-129.09,69.56-180,122-.07-1.32.02-2.67,0-4l-2-14c-.05-4,.03-8,0-12,11.04-8.38,20.44-18.94,31.05-27.95,46.72-39.68,88.86-58.79,142.64-85.44,3.79-1.88,5.46.56,4.31-6.61,6.59,3.69,9.14,22.5,4,28Z"/>
    <path class="cls-1" d="M828.28,1158.51c-7.71.76-17.12.94-25.04,2-2.3.31-4.03-.81-2.92,2.94,2.94,9.89,14.5,26.53,18.96,37.05,9.37,22.12,18.89,49.37,25.52,72.48,5.47,19.06,12.42,42.07,11.47,61.53-4-.06-8,.05-12,0-1.64-.02-7.02-1.94-12-2l-5.74-9.19c-13.48-55.52-32.48-108.55-57.01-159.07l2.75-3.74c8.42-1.49,17.09-2.16,26-2,6.53-6.5,22.98-5.94,30,0Z"/>
    <path class="cls-1" d="M470.28,1332.51c-6.5-.05-19.5,1.29-24.59.04-1.9-.47-2.91-5.17-5.28-7.12-38.31-31.53-82.9-42.43-130.63-24.41-13.76,5.2-32.89,13.61-39.5,27.5-1.31-.12-2.7.16-4,0l-12-2c-5.5-.31-8.06-1.44-12-2l26.17-22.83c33.67-25.07,77.01-36.24,118.22-26.62,30.4,7.09,70.25,28.11,83.61,57.45Z"/>
    <path class="cls-1" d="M248.28,1068.51c5.78,4.06,7.06,7.69,3.85,10.88-74.53,22.41-140.2,76.48-181.07,141.18l-2.78-.06h-2c-6.38-4.76-9.63-11.41-14-18,4.44.13,5.37-2.66,7.64-5.36,8.82-10.45,16.16-22.43,25.33-32.67,40.78-45.57,91.42-81.49,148.87-103.14l2.15-6.83c6.12-2.37,17.51,8.87,12,14Z"/>
    <path class="cls-1" d="M272.28,242.51c.56.82,1.02,1.66,1.14,2.54.21,1.6-18.54,20.88-21.63,23.34l-5.51.12-58.5,10.5c-28.37,10.93-59.33,18.99-89.07,26.93-32,8.53-64.8,14.63-96.42,24.58.36-9.94-.58-20.09,0-30h2c2.88,1.87,4.57,4.28,4.04,7.58l260.56-68.82,3.4,3.24Z"/>
    <path class="cls-1" d="M264.28,4.51c4.51,2.99,3.76.95,2.61,5.45-5.33,20.83-22.36,38.71-38.79,51.37-27.95,21.54-67.44,41.71-99.82,56.18-27.96,12.5-58.93,24.02-88,33,2.56-4.9,5.59-7.99,8-12,3.29-2.58,6.13-5.47,8.52-8.66l68.79-29.43c39.33-18.6,91.11-45.95,106.63-88.5l6.06-3.42c1.89-.27,4.05.16,6,0,1.8-1.4,4.16-1.34,6,0,.51-.85,1.84-1.52,4-2,3.08-.47,5.91-1.53,10-2Z"/>
    <path class="cls-1" d="M238.28,8.51c-5.5,10.78-8.47,21.21-16.05,30.95-18.96,24.38-68.31,51.51-96.6,65.4-24.76,12.15-52.89,20.5-77.35,33.65.66-1.1,1.06-2.52,2-4,1.49-1.23,2.16-2.56,2-4,3.16-4.82,6.52-9.42,10-14,41.43-17.83,78.99-40.85,112.7-69.08,5.91-9.78,12.35-18.75,19.3-26.92,14.03-4.92,29.26-9.92,44-12Z"/>
    <path class="cls-1" d="M194.28,20.51c-3.38,9.09-7.22,18.05-13.17,25.83-18.69,24.43-79,56.27-108.08,67.93-3.62,1.45-6.64,2.92-10.74,2.24,1.52-2,3.17-2.96,4-4l2-2c35.9-43.17,71.87-71.03,126-90Z"/>
    <path class="cls-1" d="M174.28,548.51c1.4,3.59,2.07,7.59,2,12,1.16,2.06,2.24,4.15,3.04,6.34s1.57,4.32,1.66,6.47c2.69,63.38.95,127.48-2.01,190.65l-2.69,6.55c-.57,1.75-1.24,1.72-2,0-3.9-6.61-3.93-13.41,0-20-4.94-12.77-4.97-25.24,0-38-3.91-11.29-3.91-22.71,0-34-3.93-7.93-3.91-16.06,0-24-4.99-10.12-4.94-19.87,0-30-3.93-5.25-3.9-10.74,0-16-3.91-3.2-3.89-6.78,0-10-5.44-3.79-5.39-8.19,0-12-5.43-2.49-5.4-5.51,0-8-3.63-.62-4.97-3.79-4.02-9.49-53.61,9.87-105.39,23.28-155.34,40.23-7.59,1.51-13.69,2.13-14.64-6.74.04-4-.05-8,0-12,50.06-17.57,104.9-31.1,158.86-42.52,2.38-.5,4.88-.46,7.42-.37s5.15.45,7.72.89Z"/>
    <path class="cls-1" d="M176.28,488.51c5.76,5.49,6.02,16.66,0,22-58.1,13.52-115.17,28.17-171.19,43.93l-2.81-3.93c-.9-.41-1.57-1.74-2-4,.07-1.33-.08-2.68,0-4-.05-3.83.62-7.17,2-10l.81-4.33c56.61-14.31,113.23-28.63,169.88-42.96l3.31,3.29Z"/>
    <path class="cls-1" d="M266.28,1086.51c2.89,4.3,2.82,3.71-1.98,4.98-78.54,20.88-136.68,69.99-182.05,136.08-1.72,2.5-1.52,5.93-5.96,4.94-1.83-2.34-6.35-3.48-8-8,5.43-4.67,1.93-.07,1.98-.39,1.63-11,27.93-41.11,36.92-50.89,40.61-44.16,92.77-80.63,151.1-94.71,5.57-2.37,10.61,2.52,8,8Z"/>
    <path class="cls-1" d="M174.28,578.51l-1.46,4.35c-56.39,13.74-112.8,27.4-169.24,40.96l-3.31-3.32c.04-5.99-.06-12.01,0-18,7.61,9.88,28.93-3.77,39.85-6.75,41.75-11.37,84.46-20.29,126.39-30.54,1.92-.47,4.44-2.68,4.78-2.66,4.13.16,2.86,12.6,2.99,15.95Z"/>
    <path class="cls-1" d="M178.28,462.51c5.66,3.03,6.03,13.21,0,16l-3.9,2.79c-56.39,12.19-112.48,25.67-168.28,40.45,1.17,5.87-.1,9.45-3.81,10.77-.4,3.56-1.92,8.73-2,10v-60c.57-1.75,1.24-1.72,2,0,5.41,2.5,5.39,5.5,0,8,3.39,1.77,4.85,5.07,4.38,9.91l168.3-41.22,3.32,3.31Z"/>
    <path class="cls-1" d="M2.28,568.51c3.63,1.77,4.6,4.3,3.97,8.04,51.99-16.2,107.99-29.54,162.1-41.65,8.62-1.93,7.94,7.77,5.93,13.62-37.87,9.2-76.43,16.62-114.02,26.98-17.54,4.84-31.95,11.71-50.5,15.65-3.58.76-6.01,2.23-9.49-.63.2-14.58-.72-29.46,0-44,1.92.53,1.91,2.31,2,4,6.69,3.87,5.02,13.34,0,18Z"/>
    <path class="cls-1" d="M174.28,586.51c.11,3.99-.05,8,0,12l-2.75,3.62c-44.38,8.04-88.52,20.05-132.42,36.02-10.51,3.03-27.59,7.86-36.84,4.36-.06-3.21,1.2-8.32-2-10,0-.67,0-1.33,0-2l.89-4.01c56.46-14.74,113.07-29.14,169.82-43.18l3.29,3.19Z"/>
    <path class="cls-1" d="M174.28,578.51c.1,2.66-.07,5.34,0,8L.28,630.51c.02-3.33-.02-6.67,0-10l174-42Z"/>
    <path class="cls-1" d="M258.28,1078.51c.95,4.53-2.07,4.73-5.45,5.45-69.39,14.92-143.32,78.43-179.6,138.59-1.97,3.27.68,5.84-4.95,1.96-.16-.45.01-1.31,0-2v-2c1.79-6.89,22.23-31.97,28.05-38.95,33.01-39.56,79.3-74.71,126.58-95.42,5.17-2.26,29.16-8.24,29.23-12.64,0-.32-3.04-3.47-3.87-5,5.93-4.32,13.26,4.06,10,10Z"/>
    <path class="cls-1" d="M460.28.51v2c-4.66-.02-9.34.01-14,0-8.61,3.91-17.4,3.93-26,0-16.64,0-33.36.08-50,0-6.92-.03-16.72,1.68-22-2,37.16-1.24,74.79.2,112,0Z"/>
    <path class="cls-1" d="M192.28,368.51c5.34,3.17.14,21.92-6,22l-3.03,2.9-54.54,11.59c-41.03,12.76-82.36,23.47-123.98,32.1,2.76,5.18,2.95,13.6-2.44,17.41,5.41,5.14,5.48,10.89,0,16-.57,1.75-1.24,1.72-2,0,0-11.98-.04-24.02,0-36l2-6c-1.51-3.73-1.58-8.29,0-12,3.36-2.09,6.75-4.11,10.28-5.86s7.01-3.46,10.68-4.51c52.88-15.12,106.85-29.36,160.02-41.32,4.19-.94,8.12-1.51,9.03,3.68Z"/>
    <path class="cls-1" d="M2.28,384.51c4.96,4.9,4.99,9.11,0,14,3.89,2.53,3.9,5.48,0,8-.57,1.75-1.24,1.72-2,0,.12-11.3-.21-22.7,0-34h2c5.42,3.81,5.47,8.22,0,12Z"/>
    <path class="cls-1" d="M2.28,416.51c-.03,3.99.14,8.02,0,12-.57,1.75-1.24,1.72-2,0,.04-7.32-.08-14.69,0-22h2c3.91,3.22,3.92,6.79,0,10Z"/>
    <path class="cls-1" d="M4.28,1052.51c-3.48-2.73-1.95-9.61-2-14,3.5,2.74,1.92,9.61,2,14Z"/>
    <path class="cls-1" d="M266.28,1328.51c-3.71-.44-9.76,1.65-12-2,3.79.21,9.78-1.48,12,2Z"/>
    <path class="cls-1" d="M2.28,474.51c3.83,1.13,3.82,2.87,0,4-.57,1.75-1.24,1.72-2,0v-8h2c3.81,1.13,3.81,2.87,0,4Z"/>
    <path class="cls-1" d="M.28,434.51c0-2-.01-4,0-6h2c-.08,2.19.6,5.04-2,6Z"/>
    <path class="cls-1" d="M18.28,208.51c-.2.95-1.06,1.72-2,2,.75-2.38-.09-2.71,2-6,5.38.62,4.84,1.78,0,4Z"/>
    <path class="cls-1" d="M254.28,6.51c-.55,1.94-2.3,1.88-4,2v-2c1.29-.16,2.73.19,4,0Z"/>
    <path class="cls-1" d="M26.28,1150.51c-.4-.99-1.31-2.2-2-4l2,4Z"/>
    <path class="cls-1" d="M2.28,482.51H.28v-4h2c3.82,1.13,3.82,2.87,0,4Z"/>
    <path class="cls-1" d="M1046.28,2.51l-1.02,1.99-2.98-1.99c1.33.05,2.67-.06,4,0Z"/>
    <path class="cls-1" d="M1320.28,1120.51l2-4c-.64,2.52-1.94,3.78-2,4Z"/>
    <path class="cls-1" d="M18.28,204.51c.1-.65-.14-1.37,0-2h2c2.79,2.76,1.51,3.88-2,2Z"/>
    <path class="cls-1" d="M36.28,160.51v-2h2c-.51.94-1.71,1.47-2,2Z"/>
    <path class="cls-1" d="M38.28,158.51h-2c.44-.85,1.55-1.35,2-2-.23.62.26,1.52,0,2Z"/>
    <path class="cls-1" d="M38.28,156.51c.2-.53-.15-1.32,0-2,.62-.85,1.29-.83,2,0-.38.88-1.57,1.37-2,2Z"/>
    <path class="cls-1" d="M40.28,154.51h-2c.2-.92,1.12-1.66,2-2-.25.54.25,1.43,0,2Z"/>
    <path class="cls-1" d="M50.28,134.51c.79-1.24,1.2-2.77,2-4l1.96.99-3.96,3.01Z"/>
    <path class="cls-1" d="M66.28,112.51c.59-.73,1.41-1.29,2-2l-2,2Z"/>
    <path class="cls-1" d="M68.28,1222.51c-.74-.56-1.28-1.46-2-2h2c-.14.53-.01,1.35,0,2Z"/>
    <path class="cls-1" d="M446.28,2.51c-.26,3.6-1.82,6.23-3.99,9-48.27,61.66-173.4,114.15-246.98,141.04-58,21.19-117.36,40.06-177.03,55.97.25-1.18-.19-2.73,0-4,.44-.69,1.49-1.25,2-2,56.41-11.67,115.32-33.26,169.94-55.06,59.05-23.58,128.69-54.58,179.89-92.11,18.29-13.41,41.18-31.72,50.17-52.83,8.65,0,17.35-.02,26,0Z"/>
    <path class="cls-1" d="M462.28,150.51c-12.71,4.78-28.94,11.85-41.4,17.6-9.64,4.45-23.61,11.05-30.6,18.4-5.3,1.14-13.23,2.66-18,4-4.48-1.13-9.04-.2-13.69,2.81-59.79,18.6-120.65,35.38-181.39,51.4-4.65,1.23-9.45,1.91-14.28,2.55s-9.74.98-14.65,1.24c9.26-9.42,22.07-7.57,32.38-10.62,70.14-20.7,142.66-44.68,210.98-71.02,13.24-5.11,28.13-11.67,40.64-18.36.68.06,1.4-.13,2,0,.56.12,2.47,3.28,5.31,3.67,5.44.74,15.84-3.67,22.69-1.67Z"/>
    <path class="cls-1" d="M350.28,140.51l-6,2c.31-.06,3.95-1.45,6-2Z"/>
    <path class="cls-1" d="M662.28,1160.51c5.64,3.27,10.01,8.9,13.11,16.9,15.6,22.37,29.82,46.01,41.11,71.48,7.29,16.45,27.43,63.13,25.26,78.04-.28,1.89-.84,3.74-1.48,5.58-11.98-.06-24.02.05-36,0l-6.67-9.19c-15.41-55.9-44.87-107.68-80.86-151.13-3.89-5.02-4.05-8.92-.47-11.67,15.33-1.27,30.69-1.37,46,0Z"/>
    <path class="cls-1" d="M616.28,1160.51c3.14,13.93,17.12,25.26,25.63,37.37,28.61,40.71,49.82,86.38,62.37,134.63-9.31-.04-18.69.09-28,0l-6.11-7.88c-15.96-58.62-50.5-109.91-90.75-154.72l-3.14-9.4c13.33-1.17,26.69-1.21,40,0Z"/>
    <path class="cls-1" d="M692.28,1160.51c1.74.86,3.42,1.78,4.95,2.92,12.38,9.3,39,67.21,46.65,85.12,7.05,16.53,26.43,63.51,23.99,78.36-.31,1.9-.91,3.75-1.58,5.59-8.65-.08-17.35.05-26,0-9.38-43.05-26.33-84.64-48.4-122.6-9.61-16.52-23.03-31.79-29.6-49.4,9.93-1.52,20.08-1.6,30,0Z"/>
    <path class="cls-1" d="M576.28,1160.51c45.17,48.98,84.61,106.17,100,172-7.31-.07-14.69.14-22,0l-6.63-7.73c-19.92-60.33-56.73-114.85-104.52-154.54-4.05-4-4.34-7.25-.85-9.74,11.31-1.19,22.68-1.17,34,0Z"/>
    <path class="cls-1" d="M506.28,1158.51c12.11.94,24.11,1.6,36,2,3.29,10.7,15.8,16.75,23.05,23.95,41.16,40.86,72.24,92.44,88.95,148.05-4.96-.1-19.27,1.12-22.12-.88-7.51-22.54-16.93-44.58-29.04-64.96-24.4-41.04-53.63-68.59-90.96-97.03-5.19-3.95-12.59-3.33-13.88-11.13,2.67.04,5.33-.04,8,0Z"/>
    <path class="cls-1" d="M722.28,1160.51l3.87,1.67c16.93,29.73,34.52,60.74,47.25,93.25,5.67,14.49,21.87,59.64,18.74,72.21-.42,1.67-1.1,3.28-1.86,4.87-7.98-.08-16.02.08-24,0-12.15-62.05-40.92-118.88-74-172,9.92-1.65,20.09-1.69,30,0Z"/>
    <path class="cls-1" d="M750.28,1160.51l3.95,2.24c11.47,19.67,22.77,44.37,31.96,65.91,8.59,20.13,33.05,79.96,29.78,98.17-.35,1.93-.98,3.81-1.69,5.68-7.98-.08-16.02.08-24,0-2.71-16.07-6.26-32.44-10.97-48.03-12.17-40.32-32.51-78.56-53.48-114.53-1.8-3.09-4.22-5.25-3.55-9.44,9.17-1.79,18.83-1.74,28,0Z"/>
    <path class="cls-1" d="M772.28,1160.51l38.04,88.96c9.09,27.16,17.2,54.75,21.96,83.04-5.99-.07-12.01.06-18,0-10.15-58.84-33.52-109.94-60.86-162.16-1.72-3.28-3.68-5.71-3.14-9.84,7.05-1.83,14.92-1.7,22,0Z"/>
    <path class="cls-1" d="M372.28,190.51c-21.42,6.02-46.87,16.64-66,28-91.36,30.32-184.68,57.8-279.85,81-7.34,1.23-14.72,1.56-22.15,1-.13-4.61-.09-9.31.1-13.91,48.39-10.76,95.98-25.01,143.9-38.09,69.74-19.03,138.7-38.88,208.81-56.18,5.94-1.47,10-9.21,15.19-1.82Z"/>
    <path class="cls-1" d="M902.28,1154.51l-8.04,3.03c21.68,56.55,41.68,114.41,50.04,174.97-7.98-.04-16.02.05-24,0l-5.9-11.42c-11.49-54.33-27.26-106.76-47.3-157.29l3.2-5.29,6-2c8.57-.73,17.48-1.14,26-2Z"/>
    <path class="cls-1" d="M174.28,750.51c-.02,6.65.04,13.35,0,20,1.46,5.32,1.51,10.72,0,16l-10.01,7.36c-55.4,17.41-106.2,47.03-153.1,78.36-5.17,2.09-8.55,2.81-8.89-3.72-.02-12.64.02-25.36,0-38,1.68-3.28,3.6-6.59,6.6-8.82,33.65-24.93,113.75-64.9,154.35-72.5,3.71-.7,7.49.25,11.05,1.32Z"/>
    <path class="cls-1" d="M174.28,786.51c1.34,12.85,1.73,25.79,1.18,38.82l-4.42,3.88c-59.58,18.15-112.05,51.71-162.96,86.27l-5.8,1.03c-.06-15.97.02-32.03,0-48,3.36,2.39,6.66.42,9.76-1.18,12.74-6.58,25.63-17.97,38.53-25.52,38.99-22.83,80.36-42.16,123.71-55.29Z"/>
    <path class="cls-1" d="M174.28,712.51c-.02,12.64.04,25.36,0,38-62.01,14.77-118.49,46.51-172,80-.02-14.64,0-29.36,0-44l2.65-5.04c49.67-27.37,100.55-53.22,156.76-69.52,1.89-.55,3.98-.49,6.12-.39s4.32.48,6.48.96Z"/>
    <path class="cls-1" d="M178.28,886.51c-23.32,10.95-47.41,20.52-70.04,32.96-26.93,14.8-54.8,34.03-78.9,53.1-4.53,3.58-21.9,21.02-24.08,21.93-4.09,1.71-2.81-2.77-2.97-4.95-.82-11.16.09-23.66,0-35.03,9.08-13.49,26.91-26.16,41.08-35.5,40.51-26.71,83.04-51.24,128.99-66.92-.61-3.27.26-4.75,3.93-5.58,4.36,12.18,1.09,27.08,2,40Z"/>
    <path class="cls-1" d="M176.28,846.51c-.14,3.3.31,6.64-.09,9.92-2.62.23-5.38.05-7.9,1.04-41.93,16.39-82.32,37.15-119.46,62.6-15.95,10.94-30.42,23.82-46.56,34.44-.09-12.64.04-25.36,0-38,51.7-39.2,109.38-73.96,171.91-92.09.23-12.61.02-25.3.09-37.91.03-5.33-.03-10.67,0-16h2c-.06,25,1.08,51.18,0,76Z"/>
    <path class="cls-1" d="M174.28,678.51c.02,11.31.02,22.69,0,34-43.94,12.05-87.7,29.86-128.04,50.96-14.35,7.5-28.55,18.72-43.96,23.04,0-11.98,0-24.02,0-36,1.11-1.79,2.28-3.52,3.66-5.07s2.69-2.99,4.32-3.89c14.94-8.23,30.11-16.09,45.45-23.54,28.59-13.89,76.12-36.43,106.53-40.66,4.07-.57,8.11-.02,12.04,1.16Z"/>
    <path class="cls-1" d="M174.28,624.51c.04,9.98-.03,20.02,0,30l-2.96,3.84c-8.5.54-17.26,2.83-25.72,5.99-46.75,17.45-85.92,35.44-130.91,56.32-1.8.84-3.83,1.2-5.9,1.51s-4.31.37-6.5.34c0-10.64,0-21.36,0-32,1.18-1.65,2.42-3.25,3.85-4.65s2.78-2.68,4.39-3.44c47.44-22.36,101.19-47.44,152.16-59.3,1.76-.41,3.67-.23,5.64,0s3.99.77,5.95,1.38Z"/>
    <path class="cls-1" d="M174.28,654.51c.03,7.98-.02,16.02,0,24-60.91,14.1-117.71,41.92-172,72,0-9.31,0-18.69,0-28,49.35-25.34,99.92-50.05,153.57-65.42,6.07-1.74,12.01-3.23,18.43-2.58Z"/>
    <path class="cls-1" d="M174.28,608.51c.04,5.32-.02,10.67,0,16-60.52,13.28-115.91,40.94-172,66,0-12.64.06-25.36,0-38l1.35-4.47c55.77-14.27,111.54-28.53,167.32-42.8l3.33,3.28Z"/>
    <path class="cls-1" d="M174.28,598.51c.04,3.33-.03,6.67,0,10L2.28,652.51c-.02-3.33.06-6.67,0-10,12.27-4.12,27.81-5.59,39.66-9.34,36.22-11.44,72.24-23.62,109.85-32.15,7.1-1.61,15.58-4.01,22.49-2.52Z"/>
    <path class="cls-1" d="M876.28,1156.51c-.96,2.6-3.81,1.93-6,2-3.08,3.68-7.72,5.12-13.94,4.32,28.68,44.01,44.45,103.93,53.78,156.89.35,2,.08,4.12-.23,6.29s-.92,4.35-1.61,6.5c-7.97-.1-16.01.11-23.98-.02-5.22-39.17-16.59-77.67-30.52-114.48-6.34-16.76-16.44-34.12-21.63-50.51-1.05-3.31-2.43-5.79.13-9,14.79-1.27,29.83-.8,44-2Z"/>
    <path class="cls-1" d="M870.28,1158.51c2.4,18.97,13,37.17,19.5,55.5,13.62,38.43,24.44,78.09,30.5,118.5-4-.03-8,.05-12,0-6.92-42.14-18.35-85.52-33.62-125.38-3.24-8.44-7.98-20.06-11.97-28.03-3.27-6.54-11.93-10.89-10.4-20.58,5.97-.17,12.02.19,17.99-.01Z"/>
    <path class="cls-1" d="M226.28,294.51c-3.82,5.72-8.8,13.97-12,20l-5.96,5.65L8.43,371.07c-2.87,1.38-4.33.16-6.15-2.56.18-6.02-2.27-16.67,3.38-19.62l220.62-54.38Z"/>
    <path class="cls-1" d="M204.28,336.51c-1.8,3.57-5.1,4.5-9.9,2.78L5.64,387.78l-3.36-3.27c.06-4-.08-8,0-12,.03-1.33-.04-2.67,0-4l212-54c-3.39,6.39-7.1,15.19-10,22Z"/>
    <path class="cls-1" d="M306.28,218.51c-9.1,5.4-26.06,17.19-34,24L8.83,312.08l-4.54.42c-.11-3.98.1-8.01-.01-11.99,53.11-11.88,105.94-26.42,158.15-41.32,47.83-13.65,94.83-31.59,143.85-40.68Z"/>
    <path class="cls-1" d="M2.28,568.51l1.66-5.33c56.54-19.42,113.42-33.43,170.65-42.01l1.69,11.34v28c-.14-2.26-1.61-7.69-2-12-.29-3.28.22-6.7-.01-9.99-11.73.12-22.2,4.43-33.36,7.16-28.73,7.02-59.78,12.91-89.42,21.05-6.48,1.78-45.99,16.99-49.2,13.8-.15-3.98.15-8.02,0-12.01Z"/>
    <path class="cls-1" d="M2.28,550.51c7.3.24,13.49-3.02,20.34-4.68,20.47-4.95,41.71-11.93,62.55-17.55,27.76-7.48,56.39-13.52,85.09-20.85,4.93-1.26,3.37-.87,6.02,3.08-.16,7.3,0,14.69,0,22-3.31-.98-.78-7.78-3.03-8.04-2.46-.28-28.76,5.14-33.81,6.22-39.36,8.39-78.36,19.76-116.75,31.29-7.14,2.15-13.82.55-20.4,6.53-.24-5.97.33-12.05,0-18Z"/>
    <path class="cls-1" d="M178.28,478.51c-.2,4.11-1.93,8.13-2,10L2.28,532.51c.39-3.42-1.42-12.46,1.16-14.23,17.69-6.73,36.99-8.47,55.01-12.98,32.92-8.24,68.15-19.7,101.31-26.18,5.6-1.09,13.26-3.54,18.52-.61Z"/>
    <path class="cls-1" d="M178.28,462.51L7.12,504.38l-4.84.14c-.16-4.65.17-9.36,0-14l1.39-4.47c57.1-14.27,114.19-28.55,171.29-42.82l3.33,3.29c-.45,5.25.35,10.73,0,16Z"/>
    <path class="cls-1" d="M180.28,432.51c-.5,4.79-1.7,10.58-2,14L2.28,490.51c-.1-2.66.05-5.34,0-8-.02-1.33.02-2.67,0-4s.01-2.67,0-4l4.1-4.25c57.06-16.68,114.47-30.74,172.24-42.16l1.66,4.41Z"/>
    <path class="cls-1" d="M180.28,432.51c-9.67-2.59-19.53,3.15-27.87,5.13-30.04,7.14-60.99,12.98-91.01,20.99-19.68,5.25-38.13,15.27-59.12,15.88-.01-1.33-.01-2.67,0-4,.06-5.32-.09-10.68,0-16l4.75-4.18c57.39-16.14,114.92-31,172.58-44.57l4.67.76c-1.46,8.52-3.11,17.42-4,26Z"/>
    <path class="cls-1" d="M186.28,390.51c-.94,4.41-1.13,10.94-2,16-4.67,6.18-8.24,3.51-12.45,4.71-30.65,8.66-61.37,16.04-92.02,23.78-25.75,6.51-52.02,11.79-77.52,19.51.11-6.61-.25-13.28.12-19.88,42.47-7.98,83.64-23.21,125.35-33.52,14.71-3.64,29.72-6.12,44.41-9.65,3.42-.82,11.47-3.5,14.12-.95Z"/>
    <path class="cls-1" d="M198.28,352.51c-1.86,5.21-4.48,10.75-6,16-4.19-.49-7.89.02-11.98,1-59.72,14.4-119.26,29.24-178.02,47,.02-3.33-.01-6.67,0-10,0-2.67,0-5.33,0-8l3.44-4.89c58.64-13.38,117.7-28.19,177.19-44.44,8.58-3.14,13.71-2.03,15.37,3.33Z"/>
    <path class="cls-1" d="M204.28,336.51c-2.21,5.19-4.1,10.69-6,16-4.07-1.73-10.3-.43-14.45.56-50.33,11.94-100.4,26.56-150.67,39.22-9.48,2.39-21.14,3.8-30.88,6.23,0-4.66-.07-9.34,0-14l191.97-49.17,10.03,1.17Z"/>
    <g>
      <path class="cls-1" d="M270.28,900.51c2.86-2.68,5.16-1.37,6.91,3.92,122.02-24.56,257.12,11.17,359.09,84.99,18.2,13.18,71.74,55.46,78.49,73.26.71,1.86,1.15,3.83,1.51,5.82-13.3,2.84-26.73,3.12-40,0l-10.11-4.64c-97.53-97.54-240.65-144.07-376.94-123.13l-10.95-2.23c-3.97-13.9-5.99-23.57-8-38Z"/>
      <path class="cls-1" d="M744.28,1068.51c-6.36,2.72-21.36,3.02-28,0-98.66-115.54-252.28-179.81-404.98-165.98-9.04.82-31.58,6.7-37.98,6.02-2.25-.24.27-7.06-3.03-8.04-1.02-7.32-1.39-12.77-2-20,10.07-3.77,20.91-5.16,32.52-4.18,22.79-3.93,46.48-7.66,69.76-6.06,8.81,4.46,17.64,5.19,26.51,2.19,60.81,8.41,121.4,25.96,176.92,52.71,65.74,31.67,103.66,66.03,155.29,115.59,5.8,5.57,21.47,21.34,15,27.76Z"/>
      <path class="cls-1" d="M266.28,842.51c4.43,1.82,6.3,7.06,5.6,15.73,87.78-13.32,178.64-6.37,260.28,25.85l2.12-1.57,5.34-1.48c17.26,9.79,35.47,18.08,54.24,24.51l2.42,4.97c63.27,37.78,119.08,83.94,167.43,138.48,7.29,6.69,10.15,13.2,8.57,19.52-9.31,2.01-18.71,2.22-28,0-2.58-8.71-11.63-18.08-17.95-25.05-87.87-97.03-200.87-146.46-325.22-166.95-5.87-.97-11.75,2.74-17.86,2.19-4.48-.4-7.09-3.62-11.87-4.29-16.65-2.33-52.61,2.48-68.61,5.69-3.94.79-18.58.28-23.61.62s-7.26,8.19-10.89-.21c-1.12-13.32-1.64-24.62-2-38Z"/>
      <path class="cls-1" d="M676.28,1068.51c-13.75,3.42-28.3,3.7-42,0-23.01-17.86-48.38-37.55-75.91-52.7-78.49-43.21-171.64-63.03-260.38-47.19l-9.72-2.11c-.25-.55.25-1.44,0-2l-2-4c-3.46-8.5-5.3-12.56-8-22,144.62-25.87,297.32,24.17,398,130Z"/>
      <path class="cls-1" d="M1070.28,626.51c.09,15.31,0,30.69,0,46l-4.04,1.71c-59.08-59.24-123.09-112.81-192.01-160.72l-1.95,3.01-7.81-3.23c-18.77-22.59-41.32-41.65-66.05-57.42l-4.14-7.35-4-4c-.57,1.72-1.23,1.69-2,0-10.01-10.81,15.12-8.47,23.29-7.51,15.16,1.78,26.36,6.27,39.64,13.35,64.85,34.61,129.73,87.76,184.88,137.21,11.99,10.75,26.39,25.5,34.19,38.95Z"/>
      <path class="cls-1" d="M634.28,1068.51c-15.38,3.86-32.63,3.88-48,0-76.82-56.03-181.22-86.68-277.32-72.09l-8.68-7.91c-5.52-8.38-7.89-13.04-12-22,110.29-24.12,237.89,12.36,325.79,81.21,7.08,5.55,17.45,12.1,20.21,20.79Z"/>
      <path class="cls-1" d="M918.28,462.51l15.99,3.92c25.28,14.5,47.86,33,70.19,51.64,22.42,18.71,48.48,40.64,65.82,62.44.14,15.3-.09,30.69,0,46-13.94-10.29-24.36-24.18-36.95-36.05-44.91-42.35-102.72-86.28-155.21-118.79-29.63-18.35-46.72-32.57-82.93-31.16-3.84.15-8.02-2.06-6.91,4l-4.12,2.44c-6.28-2.17-23.51-10.47-23.88-16.44.1-5.55,5.07-8.33,14.91-8.33,32.58-.56,64.94-1.79,97.09-3.67l4.61,2.54c4.68,19.78,23.37,28.79,40.33,36.53l1.06,4.93Z"/>
      <path class="cls-1" d="M1066.28,882.51c-1.61,20.09-3.02,30.51-8,50l-6.47-1.2c-41.3-62.59-88-124.42-144.39-174.67l-1.14-4.13-2.71-4.49,8.09-29.05,4.62-2.45c2.94-5.39,8.38-4.38,16.31,3.02,45.82,43.53,92.08,94.95,128.28,148.86,2.84,4.23,4.19,9.24,5.4,14.12Z"/>
      <path class="cls-1" d="M1022.28,1004.51c-9.34,10.78-15.09,15.68-26,24-6.04-19.79-20.56-41.74-33.13-59.89-31.76-45.84-63.18-80.59-101.46-121.5-1.29-1.38-2.25-3.08-3.15-4.84s-1.63-3.79-2.25-5.77c-2.81-5.66,7.55-20.81,14-18l9.57-11.01c55.28,50.76,107.63,116.38,144.42,182.17,4.27,7.64,3.07,9.05-1.99,14.84Z"/>
      <path class="cls-1" d="M920.28,682.51l2.14-13.99c4.94-6.52,71.37,62.15,79.17,70.6,22.29,24.15,43.2,49.89,63.54,75.67,5.39,7.72,6.44,17.63,3.15,29.72.22,13.32-.99,25.43-2,38-28.69-39.18-57.85-78.38-90.97-114.03-11.32-12.19-35.8-39.26-48.02-47.97-3.56-2.54-6.36-4.37-11.01-4-4.76-7.62-3.4-28.68,4-34Z"/>
      <path class="cls-1" d="M892.28,784.51c4.15-7.18,6.94-5.12,12.25-.36,50.67,49.77,99.08,108.9,135.57,171.82,1.22,2.1,1.98,4.48,2.68,6.91s1.15,5.04,1.5,7.62c-8.03,16.29-9.92,20.06-22,34,1.63-3.2,4.56-2.96,2.12-6.96-41.2-67.71-87.27-132.45-145.12-187.01-2.34,3.31-6.4,5.43-9,7.97-.15-11.64,11.96-28.33,22-34Z"/>
      <path class="cls-1" d="M918.28,626.51c-.79-5.35-.99-9.72,4.99-6.73,56.86,39.04,103.09,93.16,147.01,144.73,0,22.98.28,46.03.03,69.03-.04,3.38,1.28,8.89-2.03,10.97-.08-4.89,1.02-21.17-.43-23.59-.53-.89-4.06-1.49-5.55-3.34-42.44-52.81-85.92-105.93-140-147.07,1.8,4.77-1.48,8.96-2.02,12l-4.05-6.09-1.16-43.44,3.22-6.47Z"/>
      <path class="cls-1" d="M872.28,516.51c-1.69-3.11-3.98-6.07-5.99-9.01-.32-1.49,2.05-1.34,2.95-.96,7.61,3.15,32.41,21.21,40.86,27.15,41.84,29.44,83.35,64.63,119.13,100.87l41.05,37.95v44c-2.82,4.78-6.36,2.39-9.97-.95-42.72-49.94-92.38-95.59-143.82-135.24-5.94-5.46-10.01-7.4-12.21-5.81l-5.27-2.22-18.13-34.11,1.4-5.67c-2.76-5.12-6.09-9.78-10-14-1.78-.55-1.75-1.22,0-2Z"/>
      <path class="cls-1" d="M776.28,896.51c5.49-4,10.82-4.89,15.99-2.67,52.35,47.31,96.75,104.17,130.94,165.63l-10.94,3.04c-11.02,3.04-22.62,3.57-34,4-31.83-57.97-80.88-107.82-127.42-154.57l1.42-5.43c1.29-6.96,18.32-15.04,24-10Z"/>
      <path class="cls-1" d="M1058.28,932.51c-4.43,17.37-6.16,22.1-14,38-26.32-43.64-55.03-86.07-88.05-124.95-14.02-16.5-33.21-38.64-48.94-52.97-3.69-3.36-10.46-12.6-15-8.09-4.31-5.3,5.29-24.6,12-26l2-4c-1.73-.66-1.73-1.33,0-2,3.95-.04,5.55,2.71,8.03,4.96,39.2,35.59,80.96,85.16,111.63,128.38,10.88,15.33,19.35,33.08,32.34,46.66Z"/>
      <path class="cls-1" d="M836.28,856.51c3.49-2.23,3.8-2.35,7.28-1.31,3.7,1.1,33.27,32.88,38.3,38.8,37.49,44.18,73.52,91.07,99.2,143.66l-18.78,10.84c-4.98,3.07-10.4,4.53-16,6-31.93-65.75-85.24-125-136-178l-.37-4.6,22.04-16.93,4.34,1.53Z"/>
      <path class="cls-1" d="M904.28,574.51c-1-5.54,2.48-4.98,5.99-2.99,15.29,8.67,45.59,35.39,60.04,47.96,27.4,23.84,57.04,53.47,82.02,79.98,5.41,5.74,9.29,15.32,17.95,17.05,0,15.98,0,32.02,0,48-5.17.96-5.93-1.64-8.81-4.21-10.63-9.51-20.99-25.83-31.19-36.78-26.17-28.07-75.47-79.46-107.01-98.99-4.02-2.49-5.48-4.39-4.98,1.98l-4.34-1.78-8.73-34.58,3.07-3.64-2-4c-1.73-.67-1.73-1.34,0-2l-2-4c-1.73-.67-1.73-1.34,0-2Z"/>
      <path class="cls-1" d="M586.28,1068.51c-.35,1.31-.72,2.33-1.12,2.34-14.77.59-29.88.35-44.64-.51-59.68-34.68-132.03-54.82-202.08-51.52-7.3,2.56-14.02-.22-20.16-8.32-8.09-6.96-12.2-13.19-18-22,2.79,2.21,4.81,4,8.7,3.92,11.39-.23,26.83-3.79,38.22-4,68.53-1.22,143.03,18.11,202.42,51.74,11.82,6.69,30.92,16.37,36.66,28.34Z"/>
      <path class="cls-1" d="M946.28,1054.51c-.62.16-1.37-.14-2,0l-12,4c-6.59,1.62-13.02,4.21-20,4,1.17-.32,8.12-2.58,7.99-2.99-37.75-60.65-80.57-119.77-134.96-166.47-2.91,1.63-5.83,2.54-9.03,3.46,3.69-10.42,23.03-20.13,34-20,4.85-.74,5.97,1.25,8.88,4.13,42.38,41.99,87.79,96.51,117.96,148.04,4.17,7.12,13.77,17.83,9.17,25.83Z"/>
      <path class="cls-1" d="M318.28,1010.51c13.36,11.49,8.51,4.83,23.03,4.02,60.48-3.38,135.28,16.75,189,44.95,4.17,2.19,10.68,8.83,11.39,8.98,9.93,2.1,32.8-.05,44.59.05,15.97.13,32.03-.07,48,0,13.97.06,28.03-.04,42,0,13.31.04,26.69,0,40,0h28c9.31,0,18.69,0,28,0,12.61-3.93,25.39-3.93,38,0,3.21-3.91,6.79-3.91,10,0-2.08,3.32-7.59,1.99-10.97,2.03-113.91,1.41-250.31,7.34-362.01-4.06-46.88-4.78-97.5-19.42-129.02-55.98Z"/>
      <path class="cls-1" d="M878.28,1066.51c-3.31.12-6.68.04-10,0-8.35,1.01-17,1.83-25.49.68-38.01-51.66-80.83-102.12-129.71-141.9-2.82-3.17-4.68-5.47-.81-8.78l1.72-4.35,28.8-6.78,3.48,3.13,4-2c.54-1.78,1.21-1.74,2,0,8.51,15.66,24.79,25.31,37.03,37.97,27.6,28.56,60.72,68.66,81.8,102.2,3.19,5.08,10.97,14.17,7.17,19.83Z"/>
      <path class="cls-1" d="M996.28,1028.51c-10.48,7.99-20.69,16.78-34,20l15.71-10.64c-25.81-45.29-54.65-89.77-88.69-129.38-12.86-14.97-30.44-33.8-44.99-47.01-2.48-2.25-4.08-5.01-8.03-4.96-1.94-6.4,13.56-22.11,20-20,32.81,30.54,64.46,65.85,90.83,102.17,15.39,21.2,35.9,51.34,47.51,74.48,2.84,5.66,7.63,9.98,1.66,15.35Z"/>
      <path class="cls-1" d="M266.28,838.51c29.75-11.73,67.07-10.98,99.5-10.28,37.09.8,73.7,5.6,110.17,11.77-2.08-2.68-2.46-4.74.33-7.49l6.38,1.19c14.71,16.11,31.23,30.65,49.43,42.7l2.18,6.11c5.19,6.34-3.67,4.13-6.51,3.51-17.01-3.71-35.55-12.18-53.46-16.54-66.98-16.31-137.98-16.91-206.02-6.97l-2.01-20c-.04-1.33.03-2.67,0-4Z"/>
      <path class="cls-1" d="M712.28,916.51c4.28,10.32,17.82,17.4,26.03,24.97,40.02,36.94,76.21,78.35,105.98,124.02,3.77,2.27,18.3.94,23.99,1.01-14.85,3.69-32.48,1.99-48,2-3.33,0-6.67,0-10,0l-6.11-3.24c-34.48-52.39-80.86-104.1-136.03-134.42-4.01-3.25-5.78-6.29-1.86-10.34l3.72-4.04,37.93-3.34,4.35,3.38Z"/>
      <path class="cls-1" d="M1068.28,482.51c.97,19.34,1.7,38.44,2,58-3.85,3.65-6.16,2.09-9.73-.7l-63.34-54.25c-12.63-10.34-27.52-20.76-40.93-27.05l.55-5.34c9.89-7.16,19.5-15.38,24.45-26.8l5-1.87c3.2-5.7,9.1-4.82,17.7,2.63,20.44,15.92,40.8,32.08,61.07,48.46l3.23,6.91Z"/>
      <path class="cls-1" d="M462.28,816.51c6.4-1.02,16.79,9.9,14,16l7.99,13.99c-71.6-15.64-145.41-18.94-217.99-7.99-.11-4.66.08-9.34,0-14-1.15-2.12-1.66-4.15,0-6l2.5-5.19c61.05-13.64,127.11-9.42,188.77,1.96,2.83,4.11,4.41,4.52,4.74,1.22Z"/>
      <path class="cls-1" d="M1070.28,540.51c.2,13.3-.12,26.7,0,40-3.92.04-5.56-2.69-8.03-4.96-39.84-36.62-96.21-90.26-143.97-113.04,3.57-3.31,8.75-4.6,15.54-3.88,9.3-3.18,16.79-3.22,22.46-.12,2.83-.5,4.53-2.12,7.88-1,3.75,1.26,26.93,18.35,31.96,22.16,20.18,15.28,39.86,34.27,59.22,50.79,4.1,3.5,9.81,8.52,14.95,10.05Z"/>
      <path class="cls-1" d="M606.28,400.51c7.24.15,9.91,2.15,8,6l-7.27,3.47c-74.72,10.79-148.3,22.96-220.73,36.53l-4.82,3.27c-38.76,5.46-75.79,13.57-111.09,24.33l-4.09-1.6c.42-6.44,1.51-11.99,2-18l.64-3.86c67.12-13.85,134.55-27.45,202.28-40.8l27.07-1.34,4.53-3.92c32.83-.1,65.75-3.48,98.33-7.45l5.14,3.36Z"/>
      <path class="cls-1" d="M266.28,484.51l2.72-5.29c92.58-18.57,186.54-34.32,281.89-47.26,6.75.17,11.84,3.87,5.39,8.55-4.69,9.44-23.49,20.1-34,20l-4.43-1.94c-81.89,16.66-164.16,31.15-246.8,43.47l-4.78-3.53c.18-4.65-.24-9.36,0-14Z"/>
      <path class="cls-1" d="M266.28,636.51c1.36-1.17,2.76-2.28,4.29-3.15s2.94-1.64,4.45-1.82c25.56-2.99,124.02-11.56,140.64,1.2.92.71-.82,16.73-1.38,19.77,5.42,2.5,5.38,5.5,0,8l-6.54,2.22c-44.53-1.71-88.94-.13-133.23,4.75l-4.3,3.74c.55,7.56.5,14.83-3.93,21.29,5.41,7.87,5.46,16.24,0,24,4.93,10.79,4.99,21.22,0,32,5.41,16.52,5.34,33.46,0,50,5.48,6.41,5.44,13.48,0,20,.03,2-.03,4,0,6-3.32-2.08-1.99-7.59-2.03-10.97-.62-50.24-1.51-102.97.03-153.03,0-8.27.67-16.27,2-24Z"/>
      <path class="cls-1" d="M986.28,382.51c-5.22-10.32,16.7-8.06,22.39-5.93,3.88,1.45,45.07,30.04,47.99,33.16l5.63,8.78c4.47,23.88,4.8,40.19,6,64-22.27-13.97-40.52-33.85-62.13-48.87-4.55-3.16-14.84-11.67-19.87-9.13-2.29-5.73-2.49-12.74-.58-21.03-1.79-8.21-1.6-15.19.58-20.97Z"/>
      <path class="cls-1" d="M560.28,376.51c8.31-2.34,21.88-3.68,28,2,3.03,1.41,1.7,2.75-4,4l-3.86,4.1c-31.89,3.29-63.4,9.04-94.53,17.24l-31.61.66-1.92,4.22c-4.66,1.91-15.66,4.2-21.01,5.19-50.5,9.4-101.15,18.86-151.37,28.45-1.8.34-3.74.08-5.73-.24s-4-.93-5.97-1.62c.52-4.41,3.29-11.73,4-16l7.84-5.14c47.78-11.13,101.89-23.24,150.53-30.36,2.5-.37,5.09-.19,7.7.06s5.3.8,7.93,1.44l4.41-3.36c36-4.53,71.49-9.39,106.45-14.57l3.13,3.93Z"/>
      <path class="cls-1" d="M522.28,460.51c-2.92,9.32-14.14,18.27-24,18-36.02,6.09-73.11,11.85-111.29,17.29l-116.75,22.38c.59,3.49-.04,5.35-3.96,6.33,4.72,1.98,4.72,3.98,0,6,6.62,1.59,4.78,9.57-2,8,.03-13.99,1.49-26.51,2-40,7.93-.92,16.77-1.23,24.55-2.49,73.34-11.88,144.27-27.53,218.14-38.23,4.77-.69,11.95-8.42,13.32,2.73Z"/>
      <path class="cls-1" d="M594.28,326.51c.26,6.52-5.74,9.86-18,10-2.54,3.33-6.68,4.55-12.43,3.66-41.48,10.03-83.42,18.19-125.81,24.48l-3.77-2.13-9.44,5.52c-46.04,9.48-91.98,18.92-137.81,28.32l-8.75-1.84c2.65-9.23,4.43-13.4,8-22,2.39.12,4.61,3.64,3.66,3.85-1.99.45-4.28-2.59-.67-3.24,56.97-10.16,113.16-22.55,169.43-36.31,12.36-4.09,24.22-4.86,35.59-2.31l12.09-5.56c26.27-1.95,52.55-3.78,78.84-5.49l9.07,3.05Z"/>
      <path class="cls-1" d="M266.28,592.51c1.23-1.85,2.53-3.38,4.13-3.78,27.1-6.92,55.06-10.5,82.96-11.41,8.64-.28,65.83,0,70.6,3.07,3.77,2.43,3.59,3.24,2.31,8.12,5.19,3.8.26,20.11-6,22l-2.59,3.82c-48.57-5.74-98.97-2.67-149.25.63,3.18,6.79,3.35,15.94-2.16,21.55-.24,8.22-1.8,17.52-2,24,.75-16.55-1.03-33.48,0-50-.13-6.52.53-12.52,2-18Z"/>
      <path class="cls-1" d="M582.28,428.51c-.54,1.78-1.21,1.74-2,0l-8,4c-.56,1.76-1.23,1.74-2,0-.67.89-1.33.89-2,0l-2,2h-2l-2,2c2.44,5.37-.95,6.88-6,4,1.76-6.16-8.08-4.41-11.05-4.07-77.37,9-155.22,24.65-232.85,39.19-15.31,2.87-31.59,2.85-46.11,8.88.21-3.98-.26-8.03,0-12,6.54-7.25,21.22-8.12,30.81-10.19,28.76-6.23,60.06-12.42,89.19-15.81,63.22-13.39,128.29-22.13,192.34-25.72,5.24,1,7.69,3.47,3.66,7.72Z"/>
      <path class="cls-1" d="M512.28,366.51c4.56,3.84-.46,6.61-4.89,8.42-21.52,3.46-41.89,8.65-61.11,15.58-37.49,5.81-74.2,14.15-111.2,21.8-20.87,4.32-41.63,9.57-62.8,12.2.8-4.8.81-8.45,2-14l7.68-6.09c46.79-14.47,94.81-23.65,142.94-32.34,1.42-.26,2.97.12,4.6.55s3.22,1.12,4.77,1.88c22.12-7.77,48.54-11.79,72.79-12.32l5.21,4.32Z"/>
      <path class="cls-1" d="M490.28,264.51c1.72.99,3.06.99,4,0,7.96-.28,16.03.16,24,0l-2.48,6.08c-26.18,11.72-56.84,22.24-85.52,21.92-1.13,1.34-2.31,2.61-3.66,3.69s-2.55,2.03-3.93,2.36c-31.13,7.45-62.83,14.51-93.12,20.76-1.81-1.07-2.87-2.7-3.29-4.81,44.97-41.08,105.31-47.63,164-50Z"/>
      <path class="cls-1" d="M576.28,298.51c6.79-.8,12.12.54,16,4l-6.31,5.31c-11.62,3.82-69.18,20.63-75.51,18.65-1.46-.45-2.83-1.17-4.18-1.96l-14.51,6.38c-61.13,7.31-120.73,18.12-178.8,32.42-9.25,2.88-16.15,1.94-20.69-2.8.68-1.36,1.26-2.64,2-4l3.47-3.02c49.06-15.05,105.32-29.22,157.78-39.07,8.12-1.53,15.98-2.96,24.22-3.84,4.13-.44,8.32-.33,12.52-.07l2.54-4.61c19.08-4.8,60.43-13.2,79.09-11.72,1.28.1,1.97,2.64,2.38,4.33Z"/>
      <path class="cls-1" d="M752.28,264.51c3.36,2.76,2.47,5.4-.64,8.08-19.82,8.17-40.27,14.81-61.36,19.92l-5.22,3.06c-27.07,3.14-54.26,6.19-81.55,9.17l-11.23-2.23c-6.83,2.97-13.23-3.31-16-4l.74-4.35,96.36-26.14c-20.03,2-39.06.83-57.1-3.51-16.35,5.16-33.68,5.37-50,0,2.08-3.31,7.59-2,10.97-2.03,58.52-.61,116.78.98,175.03,2.03Z"/>
      <path class="cls-1" d="M566.28,264.51c16.64-.13,33.36-.03,50,0,9.31,7.76-6.89,12.09-14.72,10.42-35.49,9.22-71.12,18.02-106.88,26.4-9.18,3.02-17.31,2.75-24.4-.82l-19.99,3.54c-5.31.26-11.05.23-13.04-5.45-5.15-.02-8.78-.16-6.97-6.09,20.17-5.19,42.77-10.38,62.41-16.59,8.93-2.82,17.64-6.46,25.59-11.41,15.96-.32,32.03.13,48,0Z"/>
      <path class="cls-1" d="M266.28,556.51c.69-5.02,5.44-6.56,14.25-4.63,55.58-13.38,112.38-23.79,170.4-31.21,8.6-1.1,9.05,2.85,1.35,11.84,4.8,3.94-.27,12.41-6,10-5.68,3.05-12.83,4.56-21.48,4.53l-39.46,10.5c-5.67,1.16-10.76,1.94-15.12-2.61-33.05,8.43-66.21,14.98-99.47,19.64-.13,5.49-2.29,8.14-6.48,7.93.36-5.26-.51-10.77,0-16,0-3.66.67-6.99,2-10Z"/>
      <path class="cls-1" d="M862.28,266.51c20.46,2,7.25,14.85-6.83,12.23-17.19,5.48-34.24,7.4-51.17,5.77-1.28,1.2-2.61,2.34-4.08,3.24-6.46,3.94-75.97,9.74-83.3,7.09-1.61-.58-3.13-1.42-4.63-2.33-9.48,5.31-16.81,5.31-22,0,6.11-8.74,22.84-9.33,32.36-12.53,3.01-1.01,5.45-3.69,9.1-5.01,7.04-2.54,16.06.36,20.54-10.46,36.93.67,73.14-.24,110,2Z"/>
      <path class="cls-1" d="M454.28,404.51l32.51-.86c5.23-.46,9.06,1.16,11.49,4.86l-230,46c.37-4.53-.52-9.59,0-14,21.86-3.84,43.49-9.55,65.24-13.76,31.37-6.07,63.51-11.98,95.51-16.49,7-.99,20.41-5.73,25.25-5.75Z"/>
      <path class="cls-1" d="M506.28,324.51c1.71,4.45-2.29,7.79-12,10-67.18,9.94-137.36,34.26-204.45,42.58-6.67.83-3.31,2.12-3.55-4.58,2.16-5.21,3.78-7.59,6-12,22.45,1.7,47.34-8.73,70-13.19,46.92-9.24,96.25-14.72,144-22.81Z"/>
      <path class="cls-1" d="M492.28,310.51c-60,12.6-118.78,27.62-178.61,40.75-5.44,1.19-11.71,7.58-19.39,5.25.28-.52-.28-1.5,0-2l2-2c3.63-6.11,5.44-9.94,10-16,10.72-3.19,22.44-5.63,35.15-7.32l88.11-21.66c6.49-1.69,12.74-2.55,18.74.98,6-1.26,39.07-7.31,42.52-5.06s4.28,2.9,1.48,7.06Z"/>
      <path class="cls-1" d="M266.28,530.51c1.04-1.68,2.17-3.08,3.57-3.47,67.22-18.57,143.31-28.83,212.03-37.03.9,3.46-.97,6.96-5.6,10.5,2.85,5.06,1.77,6.68-4,6h-2c-4.67,2.39-9.49,4.71-14.71,5.55-56.47,9.05-109.69,19.1-165.71,30.2l-19.18,1.64c.8,6.75-.67,10.95-4.4,12.61-.38,4.31-1.8,7.92-2,10,.01-9.31-.02-18.69,0-28,2.52-2.33,1.88-5.04,2-8Z"/>
      <path class="cls-1" d="M446.28,542.51c4.34,4.97-5.53,24.33-12,24-5.95-2.78-13.37-3.04-20.48-2.52-48.19,6.23-96.49,14.66-145.09,24.99,3.51.52,1.01,2.2-2.43,3.54-.55,5.62-1.72,13.5-2,18,.63-9.07-.89-19.1,0-28,.23-2.29,3.95-7.55,1.99-12.01,8.41-1,18.84-.84,26.95-2.13,22.9-3.63,58.35-16.8,80.21-17.65,1.13-.04-.22,3.96,3.56,3.8,20.09-.83,46.95-16.69,69.29-12.01Z"/>
      <path class="cls-1" d="M924.28,324.51l3.26-2.75c29.99-1.74,63.79.64,92.74,4.75,5.88,6.48,9.12,10.81,14,18,2.65,6.8-5.73,8.01-11.55,8.5-20.28-1.65-40.52-2.9-60.85-1.62l-9.59-2.88c-4.07,4.32-11.27,4.73-21.57,1.26-6.59,1.04-11.39-.05-14.43-3.26l-3.01-3.94c-11.42-3.12-16.42-7.81-14.99-14.06,3.31-6.07,21.6-10.28,26-4Z"/>
      <path class="cls-1" d="M430.28,292.51c1.64,3.4,7,.95,9.56,2.49,1.01.6,1.18,3.67,2.4,4.46,1.43.92,24.42,1.35,28.04,1.06l-.27,4.33-21.73,3.67c-45.12,6-89.12,23.19-131.67,29.48-2.73.4-8.24.77-10.33-1.48,6.04-8.02,12.56-15.2,20-22,8.59,3.38,19.7-3.56,29.56-5.44,26.11-4.99,48.39-9.86,74.44-16.56Z"/>
      <path class="cls-1" d="M944.28,278.51c20.85,8.73,11.3,13.92-28.67,15.59-19.18.38-38.22,2.04-57.11,4.99l-6.21-2.58c-15.96,2.68-32.12-1.59-46.97-7.36l-1.03-4.64c16.9-2.35,33.06-5.95,49.62-9.56,5.79-1.26,11.22,3.09,16.36-5.45l-7.99-2.99c29.49,1.79,53.32,3.16,82,12Z"/>
      <path class="cls-1" d="M1020.28,326.51c-2.02,3.13-7.79,2.26-11.07,2.13-27.26-1.04-58.78-5.01-84.93-4.13-5.49-4.01-11.74-6.35-18.75-7.02-5.73-1.72-11.61-5.01-7.25-10.98,25.72-7.82,57.35-9.29,83.82-6.1l6.18-1.9c11.63,5.98,23.29,18.4,32,28Z"/>
      <path class="cls-1" d="M434.28,362.51c5.04,1.33,6.58,12.04,0,12-28.51,4.89-61.41,11.28-89.68,17.32-23.06,4.93-47.24,13.03-70.32,18.68,1.24-5.75,2.38-10.36,4-16,20.7-5.82,42.18-8.51,63.09-13.02,32.13-6.92,60.58-14.29,92.91-18.98Z"/>
      <path class="cls-1" d="M1044.28,362.51c10.22,21.42,13.58,32.38,18,56l-56.12-38.96c-6.28,1.84-16.54-4.51-19.88,2.96-5.85.44-17.58-16.27-16-22l2.63-3.79c22.36,3.21,44.74,3.91,67.16,2.1l4.21,3.69Z"/>
      <path class="cls-1" d="M984.28,296.51l2,2c.6.24,1.5-.26,2,0-.6,10.41-14.3,3.86-19,3.98-23.56.62-47.6,3.39-71,4.02-1.43,2-3.32,3.25-5.6,4.06-2.61.92-45.74-1.54-52.36-2.29l-6.03-3.76c.05-6.8,6.05-9.46,18-8,20.34-5.6,42.88-4.78,63-6.4,12.95-1.04,26-2.94,38.99-3.61l-9.99-7.99c10.73,3.31,32.16,10.53,40,18Z"/>
      <path class="cls-1" d="M1034.28,344.51c3.94,5.8,4.93,8.25,8,14l2,2c.27.53-.26,1.46,0,2l-27.08,2.08-46.92-4.08c-5.56,2.56-19.78-5.41-18-12,9.55.33,15.57-3.26,28.49-1.48,11.86,1.63,7.55.08,16.41-.28,10.24-.42,27.91,6.76,37.11-2.24Z"/>
      <path class="cls-1" d="M944.28,1054.51c-3.12,3.83-8.01,3.02-12,4,3.16-3.81,7.91-3.07,12-4Z"/>
      <path class="cls-1" d="M598.28,910.51l4,2c.62.16,1.37-.16,2,0l6,2c15.49,3.18,40.26,5.96,56,6,2.06,10.24,14.15,11.21,22.25,16.75,29.49,20.14,63.54,54.24,86.55,81.45,12.84,15.18,26.66,31.74,35.2,49.8-12.64,0-25.36,0-38,0-5.24-9.82-13.69-19.58-20.97-28.03-48.76-56.56-92.89-80.81-150.85-123.14-.85-.62-8.25-5.62-4.17-6.83.61.19,1.38-.18,2,0Z"/>
      <path class="cls-1" d="M872.28,418.51c1.47,4.69-4.73,5.37-7.48,5.47-26.23.99-54.91.25-80.64,1.58-7.54.39-17.47.91-23.88,4.95-12.89-4.77-38.68-11.99-52-14l.7-4.75c50.85-6.74,106.31-6.66,157.17-5.9-.81-8.04,1.23-11.16,6.13-9.35-.45,5.44-.85,17.05,0,22Z"/>
      <path class="cls-1" d="M448.28,794.51c3.15,5.49,10.39,16.98,14,22,4.08,9.91-4.06,2.76-7.16,2.16-50.66-9.76-112.39-12.8-163.59-5.91-8.7,1.17-17.15,2.43-25.25,5.75-.1-6.65.07-13.35,0-20,1.69-1.22,3.41-2.38,5.26-3.28s3.58-1.71,5.42-1.94c51.19-6.42,104.04-8.71,154.13.9l17.19.32Z"/>
      <path class="cls-1" d="M854.28,374.51c2.2-7.75,24.76-5.71,22,4-.81,1.72-3.75,12.07-4,14-.57,2.68-2.5,4.35-4.62,5.83-62.45.74-124.88,3.58-187.3,8.5l-6.08-2.33c-18.19,5.51-42.06,7.53-60,2l-8-6c20.81-10.55,48.66-14.5,72-14l3.55-3.24c55.97-8.07,115.13-9.58,172.45-8.76Z"/>
      <path class="cls-1" d="M678.28,386.51c-23.94,3.91-47.52,10.75-72,14-30.01,3.99-79.04,8.84-108,8-15.68-.45-28.8-4.05-44-4,7.12-2.39,14.52-.71,22.47-2.55,28.32-6.55,79-19.27,107.53-19.45,11.14-2.33,90.06-5.61,93.98-1.34l.02,5.34Z"/>
      <path class="cls-1" d="M674.28,404.51c-3.26,7.33-11.92,10.66-26,10-22.68,1.52-44.3,8.12-66,14-1.59-4.89-4.49-3.76-8.36-3.55-61.84,3.33-126.53,14.44-187.64,21.55,10.39-4.8,23.73-7.76,35.15-9.85,61.97-11.3,129.94-23.56,192.85-30.15,21.41-2.24,40.95-.99,60-2Z"/>
      <path class="cls-1" d="M426.28,744.51c4.56,14.42,14.45,36.83,22,50-1.34,4.34-5.24,4.22-8.98,4.19-15.18-.14-34.24-5.42-49.94-6.27-41.13-2.24-82.39,1.42-123.08,6.08-.18-16.63-.07-33.37,0-50,1.55-1.16,3.13-2.26,4.83-3.11s3.26-1.6,4.92-1.8c31.76-3.82,62.96-5.18,94.81-4.81,7.19.08,51.59,1.81,53.73,3.46.72.56,1.24,1.37,1.71,2.26Z"/>
      <path class="cls-1" d="M418.28,712.51c2.5,10.23,4.88,22.14,8,32-3.59,1.13-6.8,2.1-10.68,1.86-17.25-1.07-37.2-3.63-54.24-3.94-32.32-.58-62.85,3.23-95.08,6.08.04-10.64-.06-21.36,0-32,1.66-1.31,3.35-2.55,5.19-3.52s3.57-1.85,5.41-2.13c41.43-6.33,88.53-5.97,130.38-3,1.86.13,3.69.86,5.56,1.65s3.7,1.87,5.47,3Z"/>
      <path class="cls-1" d="M414.28,660.51c.6,12.7,1.64,25.31,2,38-3.01,1.32-5.35-.38-7.01-5.1-45.24-2.11-92.66-2.98-138.41,3.14l-4.58-4.04c.14-8.9-.04-17.86-.12-26.77l1.4-1.33c48.54-7.06,97.86-7.47,146.72-3.9Z"/>
      <path class="cls-1" d="M420.28,610.51c-.14.64.13,1.36,0,2l-2,8c-1.71,9.99-.38,23.15-4,32-.16-5.88.49-11.86-.28-17.72-48.57-8.49-98.97-3.57-147.72,1.72.23-7.97-.16-16.04-.01-24.01,33.23-3.11,65.89-6.09,99.1-6.07l54.92,4.08Z"/>
      <path class="cls-1" d="M266.28,692.51c14.25.57,28.86-3.21,42.92-4.08,19.34-1.21,39.22-.2,58.1.07,7.74.11,43.24-1.38,46.58,2.46-.12,2.97,1.75,5.38,2.4,7.55,1.55,5.19,1.04,10.08,2,14-50.53-3.14-101.92-4.32-152,4,.04-7.98-.13-16.02,0-24Z"/>
      <path class="cls-1" d="M790.28,354.51l-5.51,4.91c-19.7,3.85-39.2,6.22-58.49,7.09-10.96,4.49-23.16,6.58-36.59,6.29-32.45,4.5-64.84,7.99-97.61,7.71-1.27-.01-2.54-.88-3.8-2-9.74-.17-19.17-1.89-28-2-2.84-4.54.44-6.37,5.06-7.51l16.8-.95c23.77-6.84,47.82-10.68,72.14-11.54l1.38-4.27c4.87-1.47,33.98-6.23,37.6-5.55,1.84.34,3.07,2.15,4.02,3.82-.57-5.95,29.74-4.82,31.2-4s2.29,2.41,2.8,4l1.87-4.03,31.31-3.29,3.81,3.32,12.02-.55c5.78.65,13.16,2,9.98,8.55Z"/>
      <path class="cls-1" d="M604.28,350.51c15.67-.65,31.52-.25,47.56,1.21l2.44,4.79c-23.89,3.71-47.71,11.16-71.51,15.49-7.62,1.38-17.05-2-22.49,4.51-11.41-.14-26.75,4.73-36.91,5.76-24.73,2.49-51.68,4.31-77.09,8.24,1.21-3.41,1.13-4.79,4.78-6.36,14.91-6.39,39.27-7.9,54.94-12.97,4.09-1.32,5.91-4.54,6.28-4.68.02-1.64.07-4.24,1.13-4.55,17.99-5.25,61.18-14.61,78.68-14.48,2.88.02,9.43,2.08,12.19,3.03Z"/>
      <path class="cls-1" d="M726.28,366.51l4.18-1.65c40.74,1.17,81.09,2.76,121.05,4.78l2.77,4.87c-42.3.43-86.23,6.3-128.99,8.01-15.52.62-31.39,1.44-47.01,3.99-5.21-6.31-11.52-1.82-16.77-2.22-25.59-1.93-51.53-1.95-77.23-1.78l4-4c42.66.74,92.09-11.73,138-12Z"/>
      <path class="cls-1" d="M498.28,478.51l-9.12,8.1c-5.71,4.12-13.19,5.59-22.43,4.4-64.79,7.97-129.98,21.28-194.12,35.14l-6.33-1.64c.21-3.31-.23-6.69,0-9.99,14.03-1.1,27.5-5.03,41.23-7.77,58.57-11.69,120.66-23.48,179.66-28.34,3.26-.27,11.03-6.83,11.1.1Z"/>
      <path class="cls-1" d="M476.28,500.51c1.64-2.71,4.59-4.46,3.99-7.99-7.44,1.51-15.3,1.22-22.75,2.23-46.18,6.26-95.6,15.74-141.66,24.34-16.66,3.11-32.98,8.09-49.59,11.41.08-1.99-.13-4.01,0-6,29.3-4.75,58.06-12.36,87.23-17.77,34.5-6.39,71.43-13.33,106.02-17.98,22.76-3.06,19.12,4.05,38.74-10.26.03,2.41-18.33,19.3-22,22Z"/>
      <path class="cls-1" d="M690.28,292.51c7.24-.55,14.76.56,22,0l-.77,5.55c-17.15,12.82-38.83,16.21-59.42,17.45l-5.81,3c-13.9,7.92-36.74,12.53-52,8-33.08,3.95-68.48,3.33-100,8l12-10c29.37-4.98,57.39-16.98,86-22,31.66-5.56,65.58-7.55,98-10Z"/>
      <path class="cls-1" d="M756.28,314.51c7.7.95,3.08,8.16-3.97,8.29,1.46,2.29.21,3.94-2.03,5.71-1.55,5.61-6.41,5.5-8,0-1.33-.85-2.58-.48-4,0-1.48,1.19-3,2.3-4.64,3.19s-3.18,1.64-4.84,1.9c-39.74,6.29-81.21,12.25-120.05,17.32-2.17-.24-3.66-1.04-4.47-2.41-8.96,2.88-24.04-4.63-28-12,3.23-6.64,13.43-4.01,18-10,17.49-2.09,34.58-6.11,52-8,10.11-4.32,23.44-5.41,34.94-6.23,20.16-1.44,44.72-1.82,64.94-1.22,3.62.11,6.97,1.82,10.12,3.45Z"/>
      <path class="cls-1" d="M576.28,336.51c15,2.32,13.12,9.84,28,12,1.75.57,1.72,1.24,0,2-8.57-.9-82.28,12.37-92,16-25.01-2.18-49.33,5.55-73.65,9.63-2.76.46-4.12-1.67-4.35-1.63,2.54-5.96-4.03-5.98-4.02-7,0-1.56,5.77-.35,4.02-5,23.23-3.38,51.42-9.56,74.89-14.11,20.19-3.91,47.07-15,67.11-11.89Z"/>
      <path class="cls-1" d="M434.28,566.51c-2.29,5.38-6.16,16.28-8,22,1.13-6.46-3.26-3.35-6.98-3.93-3.92-.6-8.44-1.83-12.04-2.05-46.93-2.88-95.3-1.85-140.98,9.98.2-2.04-.38-4.18.86-6.07,30.7-4.55,61.63-14.32,92.38-19.69,5.48-.96,11.38.16,17.29-.72,17.64-2.62,30.76-7.81,50.57-5.63,4.53.5,6.93.69,6.9,6.11Z"/>
      <path class="cls-1" d="M616.28,264.51c23.56.04,47.48-.89,71.02,0,2.42.09,7.44-1.5,6.96,1.97l-117.99,32.03c-10.6-2.64-69.49,8.95-84,12-3.24-7.66-11.23-1.75-17-1.82-9.75-.11-16.68-1.56-27-.18l22-8c43.4-3.48,87.19-20.62,129.58-29.39,4.9-1.01,16.06,2.86,16.42-6.61Z"/>
      <path class="cls-1" d="M470.28,506.51v2c-5.67,8.05-11.23,16.87-18,24,1.2-2.74,2.83-5.25,4-7.98-1.61-.06-3.25-.17-4.87.1-38.88,6.49-78.41,11.58-117.21,18.8-16.7,3.11-36.12,9.72-53.21,12.41-3.57.56-10.08-1.7-14.71.66.47-5.24-.45-10.69.06-15.94.85-.85,19.58-1.52,22.76-2.24,59.45-13.41,120.57-26.08,181.18-31.82Z"/>
      <path class="cls-1" d="M804.28,284.51l13.91,5.1,34.09,6.9c-6.1,1.68-12.84,4.14-18,8l-7.54,4.59c-10.81,2.16-60.57,10.18-66.39,7.78-1.44-.59-2.77-1.44-4.08-2.37-36.4,2.41-73.33.01-110,4,3.24-8.84,11.03-4.61,16.88-6.12,8.48-2.2,12.57-3.92,21.84-5.98,10.15-2.26,19.13-7.65,27.28-13.9,29.36-2.25,62.83-3.93,92-8Z"/>
      <path class="cls-1" d="M898.28,306.51c5.41,13.66,23.17,2,26,18-9.1.3-17.63,3.79-26,4-25.18,5.6-50.56,6.2-76,2-20.95,3.71-41.71,3.25-63.59,1.98l-8.41-3.98-3.99-9.99c5.4-.53,11.44,2.47,9.99-4.01,25.49-1.69,51.62-8.48,78-10,23.1-1.33,42.42,2.58,64,2Z"/>
      <path class="cls-1" d="M898.28,328.51c4.15,7.77,13.7,6.77,20.04,12.97,4.06,3.97.16,2.54-2.04,5.03-.65.1-1.36-.13-2,0l-14,6-7.06,2.54c-30.73-1.17-62.25-.54-93.16,2.29l-9.78-2.83c-3.81-6.11-16.04-3.32-22-8-.28-4.5,15.01-12.14,19.05-13.14,11.51-.39,23.16-1.34,34.95-2.86,25.46-.75,50.81-1.36,76-2Z"/>
      <path class="cls-1" d="M872.28,392.51c-.17,1.3.11,2.69,0,4-3.79,2.38-.79,9.04-2.87,12.13-2.34,3.49-31.72.09-38.14.28-32.73.93-65.72,2.15-97.99,4.46-8.72.63-15.33-1.94-25,3.13-17.47-2.64-42.33-3.18-60-2,3.41-4.13,10.14-1.1,14.62-2.03.7-.14,6.93-8.26,11.38-7.97,63.2-3.36,122.47-12.71,187-9.82,3.78.17,7.69-.16,11-2.18Z"/>
      <g>
        <path class="cls-1" d="M810.28,588.51l6,10c24.09,52.04,20.06,102.89-8,152l-2,2c-.66,1.08-1.01,2.51-2,4l-2,4c-16.49,23.5-34.56,38.78-60,52l-4,2c-78.56,37.02-164.35,10.52-210-62l-2-4c-.83-1.43-1.31-2.73-2-4l-2-2c-.27-.53.26-1.46,0-2l-2-2c-60.42-130.87,55.57-266.95,193.99-228.99,40.34,11.07,77.96,41.29,96.01,78.99Z"/>
        <g>
          <path class="cls-1" d="M794.28,448.51c-1.77-1.1-3.31-1.79-4-4,1.94.9,3.28,1.9,4,4Z"/>
          <path class="cls-1" d="M882.28,532.51c-3.74-4.19-7.22-9.14-10-14,6.16,2.58,7.32,9.2,10,14Z"/>
          <path class="cls-1" d="M904.28,758.51c.66-1.71,1.72-3.22,2-4l-2,4Z"/>
          <path class="cls-1" d="M906.28,580.51c-.14-.4-1.31-2.2-2-4l2,4Z"/>
          <path class="cls-1" d="M908.28,586.51c-.07-.21-1.26-1.82-2-4l2,4Z"/>
          <path class="cls-1" d="M750.28,906.51c-.76.24-2.07,1.4-4,2l4-2Z"/>
          <path class="cls-1" d="M580.28,428.51c-1.9,3.33-4.96,3.13-8,4,1.89-3.26,4.9-3.19,8-4Z"/>
          <path class="cls-1" d="M568.28,434.51c-.62.18-1.4-.2-2,0,.61-.37,1.14-1.7,2-2,.98.61.96,1.28,0,2Z"/>
          <path class="cls-1" d="M568.28,434.51v-2c.59-.21,1.41.22,2,0-.34.93-1.05,1.72-2,2Z"/>
          <path class="cls-1" d="M564.28,436.51h-2c.55-.3,1.08-1.5,2-2v2Z"/>
          <path class="cls-1" d="M564.28,436.51v-2c.47-.25,1.35.21,2,0-.62.38-1.14,1.59-2,2Z"/>
          <path class="cls-1" d="M470.28,508.51v-2h2c-.52.74-1.49,1.28-2,2Z"/>
          <path class="cls-1" d="M418.28,620.51l2-8c-.57,2.87-1.75,6.53-2,8Z"/>
          <path class="cls-1" d="M610.28,914.51l-6-2c2.32.58,5.57,1.91,6,2Z"/>
          <path class="cls-1" d="M742.28,812.51c-1.36.71-2.6,1.34-4,2l4-2Z"/>
          <path class="cls-1" d="M602.28,912.51l-4-2c2.42.7,3.78,1.94,4,2Z"/>
          <path class="cls-1" d="M816.28,598.51c-3.13-2.57-4.33-6.51-6-10,4.98,1.67,4.44,6.63,6,10Z"/>
          <path class="cls-1" d="M802.28,760.51l2-4c-.6.9-.91,2.44-2,4Z"/>
          <path class="cls-1" d="M528.28,752.51c-.94-1.49-1.34-2.86-2-4l2,4Z"/>
          <path class="cls-1" d="M522.28,740.51c-.27-.55-1.6-1.13-2-2l2,2Z"/>
          <path class="cls-1" d="M524.28,744.51c-.2-.37-1.43-.89-2-2l2,2Z"/>
          <path class="cls-1" d="M806.28,752.51l2-2c-.44.78-1.59,1.32-2,2Z"/>
        </g>
      </g>
      <path class="cls-1" d="M900.28,352.51c-6.64,4.62-20.67,18.96-24,26-4.85-5.92-14.8-4.07-22-4-15.76-4.86-32.88-1.07-48.98-2.02-26.5-1.57-52.79-6.13-79.02-5.98,3.97-6.56,9.8-1.83,14.51-2.47,15.92-2.17,33.08-7.27,49.49-9.53,32.62-4.49,66.35-3.72,99.1-4.08,4.03-.04,8.15,2.14,10.9,2.08Z"/>
      <path class="cls-1" d="M914.28,346.51c-3.36,2.34-10.11,5.91-14,6,6.25-4.35,6.47-4.44,14-6Z"/>
      <path class="cls-1" d="M742.28,328.51c2.62-.21,5.36.05,8,0,23.96-.43,48,2.71,72,2-3.99,4.49-11.91.74-16.61,1.94-2.22.57-2.15,5.27-4.49,5.81-2,.46-6.53-2.38-11.43-1.45-4.16.79-12.39,7.69-21.48,9.69s-28.13,4-37,4h-34c-9.1,0-32.3,4.34-43,6-12.56-3.93-27.48-1.59-40.85-2.17-4.33-.19-8.31-3.74-9.15-3.83v-2c9.59,1.39,10.69-2.25,19.52-3.48,37.49-5.21,78.41-12.74,114.48-16.52,1.69-.98,3.03-.98,4,0Z"/>
      <path class="cls-1" d="M742.28,328.51c-1.72.14-3.62-.04-4,0l2.98-1.99,1.02,1.99Z"/>
      <g>
        <path class="cls-1" d="M980.28,196.51l-4-2c2.33.73,3.74,1.91,4,2Z"/>
        <path class="cls-1" d="M986.28,198.51l-4-2c2.19.78,3.41,1.77,4,2Z"/>
        <path class="cls-1" d="M1028.28,218.51c-3.34-1.96-7.5-2.66-10-6,3.63,1.48,8.23,1.11,10,6Z"/>
        <path class="cls-1" d="M1056.28,1096.51c.67-.44,1.19-2.58,4-4l-4,4Z"/>
        <path class="cls-1" d="M382.28,1146.51c-4.33-.58-9.16.7-12-4,3.99,1.15,8.9.98,12,4Z"/>
        <path class="cls-1" d="M368.28,1142.51l-4-2c2.36.75,3.79,1.94,4,2Z"/>
        <path class="cls-1" d="M362.28,1140.51l-4-2c2.03.72,3.79,1.93,4,2Z"/>
        <path class="cls-1" d="M356.28,1138.51l-4-2c1.8.69,3.31,1.75,4,2Z"/>
        <path class="cls-1" d="M798.28,1158.51c-8.03.4-17.17,1.82-26,2-7.31.15-14.69-.08-22,0-9.31.11-18.69-.06-28,0-9.98.07-20.02-.04-30,0s-20.02-.02-30,0c-15.3.03-30.7,0-46,0-13.31,0-26.69,0-40,0-11.31,0-22.69.02-34,0-11.45-.02-25.36,1.7-36-2,97.27,1.32,194.72-.99,292,0Z"/>
        <path class="cls-1" d="M494.28,264.51l-1.02,1.99-2.98-1.99c1.33-.05,2.67.05,4,0Z"/>
        <path class="cls-1" d="M288.28,964.51c-.52-1.17-1.31-2.3-2-4l2,4Z"/>
        <path class="cls-1" d="M1044.28,360.51l-2-2c.28.53,1.54,1.08,2,2Z"/>
        <path class="cls-1" d="M294.28,354.51c.52-.92,1.68-1.46,2-2l-2,2Z"/>
        <path class="cls-1" d="M986.28,298.51c-.84-.33-1.51-1.25-2-2,.68.65,1.38,1.29,2,2Z"/>
      </g>
    </g>
    <g>
      <path class="cls-1" d="M828.28.51c6.12.8,12.12,1.47,18,2,.67,0,1.33,0,2,0,2.3,2.43,1.88,3.83.95,6.22-6.28,16.07-86.94,62.58-100.33,70.08-65.97,36.95-137.46,67.95-206.61,95.7-18.4,6.59-41.17,7.22-60,2,4.2-4.06,11.04-1.04,16.53-2.47,14.62-3.81,46.33-18.69,62.86-25.14,74.69-29.16,173.14-76.04,237.27-124.73,6-4.56,13.95-9.86,16.91-16.69-.76-9.56-29.45-1.49-35.57-6.97h48Z"/>
      <path class="cls-1" d="M846.28.51v2c-5.64-.04-14.05,1.62-18-2,5.99,0,12.01,0,18,0Z"/>
      <path class="cls-1" d="M848.28,2.51c7.5.04,15.66-.53,23.03,0,2.19.16,6.65-1.12,4.95,2.97-2.94,7.11-69.94,49.74-81.37,56.64-64.09,38.71-133.61,71.86-203.14,96.86-10.38,3.73-23.78,7.52-31.48,15.52-5.98.1-12.02-.13-18,0,1.29-3.68,4.47-4.14,7.49-5.51,90.12-41.02,181.44-77.63,263.16-134.84,12.03-8.42,28.75-18.56,35.35-31.65Z"/>
      <path class="cls-1" d="M819.28,2.51c1.3.67,1.3,1.33,0,2v-2Z"/>
    </g>
  </g>
</svg>