<?xml version="1.0" encoding="UTF-8"?>
<svg id="Layer_1" data-name="Layer 1" xmlns="http://www.w3.org/2000/svg" viewBox="0 0 449.55 314.65">
  <defs>
    <style>
      .cls-1 {
        fill: #fff;
      }
    </style>
  </defs>
  <path class="cls-1" d="M177.03.6c51.98-.99,105.9-.97,157.75,1.66,53.83,2.74,98.41-.1,109.17,62.83,6.01,35.19,6.04,72.16,5.25,107.67-.72,32.25.54,95.09-23.46,118.54-22.52,21.99-77.52,19.75-107.98,21.02-66.48,2.76-135.44,3.42-202.05.03-53.88-2.74-98.41.13-109.17-62.83C-2.02,199.53-1.56,131.41,4.36,80.93,10.33,29.94,21.83,11.32,74.74,5.32,107.68,1.58,143.86,1.24,177.03.6ZM180.23,224.31l116-67.49-116-66.51v134Z"/>
</svg>